<svg width="48" height="48" viewBox="0 0 48 48" fill="none" xmlns="http://www.w3.org/2000/svg">
<path d="M36.741 5.84615H47.0574L42.9879 10.1452L47.056 14.0769H36.4097V10.8854M13.4379 35.9382V44.7261C13.4379 47.8579 8.36114 47.2667 8.36114 44.7261L8.5968 28.1996L2.34313 22.9814C-0.61942 21.2908 1.64154 17.7008 4.28494 19.1948C9.13275 21.9361 8.94961 24.1161 13.5631 24.1378C17.9584 24.1595 18.0365 21.9835 22.9705 19.1948C25.6126 17.7035 27.8332 21.2284 24.9124 22.9814L18.2614 28.1996L18.5308 44.7315C18.5685 47.8565 13.454 47.2871 13.454 44.7315L13.4379 35.9382ZM13.6156 12.1083C14.501 12.1078 15.3666 12.3717 16.103 12.8666C16.8393 13.3616 17.4133 14.0653 17.7522 14.8888C18.0912 15.7123 18.1798 16.6185 18.0071 17.4927C17.8343 18.3669 17.4078 19.1699 16.7815 19.8C16.1553 20.4301 15.3574 20.859 14.489 21.0325C13.6205 21.2059 12.7205 21.1161 11.9028 20.7743C11.085 20.4326 10.3864 19.8543 9.89523 19.1127C9.40406 18.3711 9.14245 17.4994 9.14352 16.608C9.14352 15.4132 9.61497 14.2673 10.4542 13.4224C11.2933 12.5775 12.4315 12.1029 13.6183 12.1029L13.6156 12.1083ZM24.0573 0.949219V18.4654V0.949219ZM24.0573 23.7311V47.0498V23.7311ZM24.4276 3.18212H36.4192V10.7743H24.4262L24.4276 3.18212Z" stroke="#4F78AB" stroke-width="1.5" stroke-linecap="round" stroke-linejoin="round"/>
</svg>
