<svg width="80" height="80" viewBox="0 0 80 80" fill="none" xmlns="http://www.w3.org/2000/svg">
<path d="M76.7752 63.4098V77.3878C76.7721 77.7159 76.639 78.0296 76.4045 78.2616C76.1701 78.4935 75.853 78.6252 75.5214 78.6283H44.2714C43.9392 78.6267 43.621 78.4956 43.3859 78.2634C43.1507 78.0311 43.0177 77.7165 43.0156 77.3878V63.6156" stroke="#4F78AB" stroke-width="1.4" stroke-linecap="round" stroke-linejoin="round"/>
<path d="M54.2266 51.4149V47.8582C54.2281 47.3197 54.445 46.8037 54.8299 46.423C55.2148 46.0422 55.7363 45.8276 56.2806 45.826H63.5102C64.0536 45.8307 64.5733 46.0462 64.9575 46.4263C65.3417 46.8064 65.5596 47.3207 65.5643 47.8582V51.4169" stroke="#4F78AB" stroke-width="1.4" stroke-linecap="round" stroke-linejoin="round"/>
<path d="M56.4411 66.1826C51.1783 65.9239 45.8996 64.8618 41.1895 62.5984L41.2112 52.7258C41.2118 52.3968 41.344 52.0814 41.5789 51.8486C41.8139 51.6157 42.1325 51.4844 42.465 51.4834H77.3378C77.6705 51.4844 77.9893 51.6157 78.2246 51.8484C78.4599 52.0812 78.5925 52.3966 78.5936 52.7258L78.6154 62.3417C73.8616 64.8187 68.4701 65.9141 63.1459 66.1826" stroke="#4F78AB" stroke-width="1.4" stroke-linecap="round" stroke-linejoin="round"/>
<path d="M57.6415 64.4053H62.1497C62.3339 64.4058 62.5104 64.4784 62.6407 64.6073C62.771 64.7362 62.8444 64.9108 62.8449 65.0931V68.1521C62.8444 68.3344 62.771 68.509 62.6407 68.6379C62.5104 68.7668 62.3339 68.8394 62.1497 68.8399H57.6415C57.4573 68.8394 57.2808 68.7668 57.1505 68.6379C57.0202 68.509 56.9468 68.3344 56.9463 68.1521V65.0931C56.9468 64.9108 57.0202 64.7362 57.1505 64.6073C57.2808 64.4784 57.4573 64.4058 57.6415 64.4053V64.4053Z" stroke="#4F78AB" stroke-width="1.4" stroke-linecap="round" stroke-linejoin="round"/>
<path d="M46.3639 26.2415C44.5277 32.5437 39.5303 37.1331 34.7825 37.3624C30.0288 37.1331 25.0056 32.5143 23.1834 26.1827L22.2861 26.3218C21.7967 26.3957 21.2977 26.275 20.898 25.986C20.4983 25.697 20.2304 25.2633 20.1528 24.7796L19.2734 19.177C19.1987 18.6928 19.3208 18.1991 19.6128 17.8037C19.9049 17.4082 20.3433 17.1432 20.8322 17.0665L21.472 16.9685C21.1803 16.0691 21.032 15.1303 21.0323 14.1858V12.1243C21.0417 9.69548 22.0204 7.36865 23.7554 5.65029C25.4904 3.93194 27.8412 2.96117 30.2962 2.9493H31.4014C31.3879 2.7823 31.4116 2.61441 31.4707 2.45743C32.0392 0.970071 35.8422 1.0171 39.9641 2.56129C40.7995 2.87341 41.614 3.23799 42.4024 3.65281C44.0925 4.35147 45.5368 5.5279 46.5543 7.03479C47.5718 8.54169 48.1174 10.3121 48.1228 12.1243V14.1858C48.1237 15.1302 47.976 16.0691 47.685 16.9685L48.3228 17.0665C48.8117 17.1432 49.2501 17.4082 49.5422 17.8037C49.8343 18.1991 49.9563 18.6928 49.8816 19.177L49.0022 24.7796C48.9247 25.2633 48.6568 25.697 48.2571 25.986C47.8574 26.275 47.3583 26.3957 46.8689 26.3218L46.3559 26.2415H46.3639Z" stroke="#4F78AB" stroke-width="1.4" stroke-linecap="round" stroke-linejoin="round"/>
<path d="M5.64894 78.9486L1 54.8373V53.2554C1 49.7237 4.54719 47.687 7.5094 47.0819C10.2125 46.5302 20.3299 44.3136 23.6062 42.0356L23.8025 42.004L29.725 70L33.28 51.5311L30.2668 43.7085H39.9916L36.9823 51.5271L40.4372 69.996L41.9428 62.997M69 51C69 50.5 67.7139 49.4046 66.0268 48.4014M57.1073 45.7839C53.2411 44.8042 48.6632 43.4317 46.6561 42.0316L46.4598 42L45 51" stroke="#4F78AB" stroke-width="1.4" stroke-linecap="round" stroke-linejoin="round"/>
</svg>
