<svg width="80" height="80" viewBox="0 0 80 80" fill="none" xmlns="http://www.w3.org/2000/svg">
<path d="M40.9561 13.0789H60.8354C61.2783 13.0805 61.7025 13.2577 62.0157 13.5719C62.3288 13.886 62.5055 14.3116 62.5071 14.7559L62.4995 30.5M22.8433 13.0769H3.08759C2.64492 13.0785 2.22087 13.2557 1.90805 13.5699C1.59522 13.8842 1.41904 14.3098 1.41797 14.7539V76.9C1.41957 77.3439 1.59592 77.7693 1.90863 78.0834C2.22134 78.3975 2.64509 78.5749 3.08759 78.577H60.8354C61.2781 78.5749 61.7021 78.3975 62.0151 78.0835C62.3281 77.7695 62.5049 77.3441 62.5071 76.9V43.5M43.4868 18.417H55.2187C55.6609 18.4207 56.0839 18.5986 56.3966 18.9123C56.7093 19.226 56.8866 19.6504 56.8903 20.094V36M21.2751 18.417H8.71243C8.26871 18.4164 7.84289 18.5925 7.52837 18.9065C7.21385 19.2205 7.03631 19.6468 7.0347 20.092V71.5538C7.03738 71.9988 7.21519 72.4247 7.52942 72.7388C7.84365 73.0529 8.26885 73.2298 8.71243 73.2308H55.2187C55.6607 73.2266 56.0835 73.0486 56.396 72.735C56.7086 72.4214 56.8861 71.9973 56.8903 71.5538V49M23.0055 17.7949C22.9812 16.6058 22.9974 14.8393 23.0055 13.5647C23.0217 11.0156 23.1575 8.55595 23.6337 7.26311C24.2603 5.55321 25.3949 4.07738 26.8841 3.03488C28.3733 1.99237 30.1456 1.43338 31.9615 1.43338C33.7775 1.43338 35.5497 1.99237 37.0389 3.03488C38.5282 4.07738 39.6627 5.55321 40.2893 7.26311C40.9296 9.01536 40.956 11.7962 40.958 13.6704C40.958 14.9246 40.9904 16.6717 40.958 17.8385L23.0055 17.7949ZM29.453 7.80586C29.9492 7.30799 30.5814 6.9689 31.2696 6.8315C31.9579 6.69409 32.6713 6.76453 33.3196 7.03391C33.968 7.30328 34.5222 7.7595 34.912 8.34486C35.3019 8.93022 35.51 9.61842 35.51 10.3224C35.51 11.0265 35.3019 11.7147 34.912 12.3C34.5222 12.8854 33.968 13.3416 33.3196 13.611C32.6713 13.8803 31.9579 13.9508 31.2696 13.8134C30.5814 13.676 29.9492 13.3369 29.453 12.839C28.7878 12.1715 28.4141 11.2663 28.4141 10.3224C28.4141 9.37857 28.7878 8.47335 29.453 7.80586ZM24.894 17.7949H40.1191C42.3466 17.7992 44.4817 18.6883 46.0575 20.2677C47.6334 21.847 48.5216 23.9882 48.528 26.2228C48.5275 26.3461 48.4784 26.4642 48.3915 26.5514C48.3046 26.6386 48.1869 26.6878 48.064 26.6883H16.9592C16.8363 26.6878 16.7186 26.6386 16.6317 26.5514C16.5448 26.4642 16.4958 26.3461 16.4952 26.2228C16.5016 23.9896 17.3888 21.8497 18.9628 20.2705C20.5369 18.6914 22.67 17.8014 24.896 17.7949H24.894Z" stroke="#4F78AB" stroke-width="1.5" stroke-linecap="round" stroke-linejoin="round"/>
<path d="M65.5445 48.1179L77.5722 36.0961L67.2891 25.7797M34.9746 64.2765L38.4354 60.8045M72.3871 20.7343L78.5813 26.9486L46.4411 59.1965C40.0341 65.6242 33.8399 59.412 40.2469 52.9823L72.3871 20.7343Z" stroke="#4F78AB" stroke-width="1.5" stroke-linecap="round" stroke-linejoin="round"/>
</svg>
