<svg width="34" height="34" viewBox="0 0 34 34" fill="none" xmlns="http://www.w3.org/2000/svg">
<path d="M4.47827 17.0078H3.08696M17 3.09477V4.48607M30.913 17.0078H29.5217M17 19V7.26868M15 17.0078H26.0435M17 29.5295V30.9209M17 1.00781C13.8355 1.00781 10.7421 1.9462 8.11088 3.7043C5.4797 5.4624 3.42894 7.96126 2.21793 10.8849C1.00693 13.8085 0.690079 17.0256 1.30744 20.1293C1.92481 23.233 3.44866 26.0839 5.6863 28.3215C7.92394 30.5592 10.7749 32.083 13.8786 32.7004C16.9823 33.3177 20.1993 33.0009 23.1229 31.7899C26.0466 30.5789 28.5454 28.5281 30.3035 25.8969C32.0616 23.2657 33 20.1723 33 17.0078C33 12.7643 31.3143 8.69468 28.3137 5.6941C25.3131 2.69352 21.2435 1.00781 17 1.00781Z" stroke="#314B6B" stroke-width="1.5" stroke-linejoin="round"/>
</svg>
