<svg width="42" height="42" viewBox="0 0 42 42" fill="none" xmlns="http://www.w3.org/2000/svg">
<path d="M5.34783 21H3.6087M21 3.6087V5.34783M38.3913 21H36.6522M21 23.4902V8.82609M18.5 21H32.3043M21 36.6522V38.3913M21 1C17.0444 1 13.1776 2.17298 9.8886 4.37061C6.59962 6.56824 4.03617 9.69181 2.52242 13.3463C1.00867 17.0009 0.612599 21.0222 1.3843 24.9018C2.15601 28.7814 4.06082 32.3451 6.85787 35.1421C9.65492 37.9392 13.2186 39.844 17.0982 40.6157C20.9778 41.3874 24.9991 40.9913 28.6537 39.4776C32.3082 37.9638 35.4318 35.4004 37.6294 32.1114C39.827 28.8224 41 24.9556 41 21C41 15.6957 38.8929 10.6086 35.1421 6.85786C31.3914 3.10714 26.3043 1 21 1Z" stroke="#4F78AB" stroke-width="1.5" stroke-linejoin="round"/>
</svg>
