<svg width="64" height="64" viewBox="0 0 64 64" fill="none" xmlns="http://www.w3.org/2000/svg">
<path d="M7.73914 32H5.04349M32 5.04348V7.73913M58.9565 32H56.2609M32 35.8599V13.1304M28.125 32H49.5217M32 56.2609V58.9565M32 1C25.8688 1 19.8753 2.81812 14.7773 6.22444C9.67941 9.63076 5.70606 14.4723 3.35975 20.1368C1.01343 25.8013 0.399528 32.0344 1.59567 38.0478C2.79181 44.0612 5.74428 49.5849 10.0797 53.9203C14.4151 58.2557 19.9388 61.2082 25.9522 62.4043C31.9656 63.6005 38.1987 62.9866 43.8632 60.6403C49.5277 58.2939 54.3692 54.3206 57.7756 49.2227C61.1819 44.1247 63 38.1312 63 32C63 23.7783 59.7339 15.8933 53.9203 10.0797C48.1067 4.26606 40.2217 1 32 1Z" stroke="#4F78AB" stroke-width="1.5" stroke-linejoin="round"/>
</svg>
