<svg width="80" height="80" viewBox="0 0 80 80" fill="none" xmlns="http://www.w3.org/2000/svg">
<path d="M59.0682 51.0664L59.0341 74.7061M59.0341 74.7061C59.0341 80.2724 68.7924 80.189 68.7371 74.6226L68.55 57.9911L68.3119 30.8067L72.2152 43.1737C74.8748 50.5948 80.0303 45.7662 78.8185 42.3862L74.3284 22.447C72.9763 16.4451 44.1565 16.7429 43.1892 22.386L40 36.5117L33.4288 25.7232C31.5027 20.3486 13.0045 20.2312 11.0593 25.66L1.20747 42.7721C0.906925 43.6185 0.93381 44.5567 1.28227 45.3821C1.63073 46.2076 2.2725 46.8533 3.06771 47.1787C4.71747 47.8443 6.18227 46.7004 7.21975 45.1999L15.3878 33.3992L9.48392 59.3855C18.0771 61.0958 26.5768 61.2921 34.9361 59.3855L29.0302 33.3992L37.1982 45.1999C38.2357 46.7004 39.5 47.5117 41.3502 47.1787C42.5684 47.0952 44.2692 45.9264 45.2493 43.176L49.1483 30.8112L48.9102 57.9956L48.7231 74.6271C48.6679 80.1935 59.0384 80.2634 59.0341 74.7061ZM22.1016 61.6148V74.7579C22.1016 80.453 13.4149 80.3853 13.4786 74.8211L13.8358 60.3309M30.5843 60.3309L30.9712 74.7941C31.0626 80.2093 22.1037 80.5906 22.1037 74.7625M21.9698 4.29471C23.7844 4.28547 25.5403 4.97694 26.9101 6.2402C28.2798 7.50346 29.17 9.25229 29.4145 11.1606C29.6591 13.069 29.2414 15.0066 28.2393 16.6123C27.2373 18.2179 25.7192 19.382 23.9681 19.8875C22.2171 20.393 20.3526 20.2054 18.7223 19.3597C17.0919 18.5139 15.807 17.0678 15.1071 15.2909C14.4072 13.514 14.3401 11.5276 14.9182 9.70199C15.4963 7.87641 16.6803 6.33628 18.2493 5.36873C19.3771 4.6652 20.6616 4.29439 21.9698 4.29471ZM58.5069 1.01174C60.1276 1.01207 61.7027 1.5818 62.9862 2.63201C64.2698 3.68222 65.1897 5.15385 65.6024 6.81725C66.0151 8.48066 65.8974 10.2423 65.2676 11.8272C64.6379 13.4121 63.5314 14.7312 62.1211 15.5787C61.2863 16.0901 60.3648 16.422 59.4091 16.5555C58.4535 16.6889 57.4825 16.6213 56.5515 16.3565C55.6204 16.0916 54.7477 15.6348 53.983 15.012C53.2184 14.3892 52.5768 13.6126 52.0949 12.7267C51.6131 11.8407 51.3003 10.8627 51.1746 9.84845C51.0488 8.83422 51.1125 7.80363 51.3621 6.81553C51.6116 5.82743 52.0421 4.90117 52.6289 4.08964C53.2157 3.2781 53.9474 2.59718 54.7822 2.08575C55.9106 1.3798 57.197 1.00885 58.5069 1.01174Z" stroke="#4F78AB" stroke-width="1.5" stroke-linecap="round" stroke-linejoin="round"/>
</svg>
