<svg width="34" height="34" viewBox="0 0 34 34" fill="none" xmlns="http://www.w3.org/2000/svg">
<path d="M5 10.0052L1 13.0046V33.0078M1 33.0078H33V13.0046L29 10.0052M1 33.0078L13.4857 22.5399C15.2924 21.0266 18.4771 20.8327 20.5571 22.576L33 33.0029L1 33.0078ZM1.33619 13.488L12.9771 22.5146M32.6638 13.489L21.0229 22.5146M19.5495 18.185C18.8035 18.5091 18.001 18.6749 17.1905 18.6722C14.0476 18.6722 11.4943 16.2204 11.4943 13.1956C11.4943 10.1709 14.0476 7.72198 17.1905 7.72198C20.359 7.72198 23.0429 9.92626 22.2648 13.3496C22.1293 13.8773 21.8837 14.3687 21.5448 14.7899C20.5495 16.0869 18.0829 16.3432 18.22 14.2237C18.3152 12.8117 18.4771 12.1598 19.26 10.7497M5.36381 16.5673V4.48379H28.6362V16.5673M20.9771 4.48379L17 1.00781L12.9771 4.48379H20.9771ZM16.9105 10.9115H17.1581C18.0343 10.9115 18.6162 11.6452 18.4514 12.5418L18.179 14.0269C18.0143 14.9234 17.1629 15.6572 16.2867 15.6572H16.039C15.1629 15.6572 14.581 14.9234 14.7457 14.0269L15.0181 12.5418C15.1829 11.6452 16.0343 10.9115 16.9105 10.9115Z" stroke="#314B6B" stroke-width="1.5" stroke-linecap="round" stroke-linejoin="round"/>
</svg>
