<svg width="80" height="80" viewBox="0 0 80 80" fill="none" xmlns="http://www.w3.org/2000/svg">
<path d="M22.5985 61.6061V74.7496C22.5985 80.4442 13.7159 80.3758 13.7729 74.811L14.1373 60.3217L9.68233 59.3773L15.727 33.3948L7.37059 45.195C6.30696 46.6942 4.80831 47.8392 3.12063 47.1734C2.30572 46.8492 1.64764 46.204 1.29005 45.3786C0.932464 44.5532 0.90441 43.6146 1.21201 42.7679L11.2971 25.6579C13.29 20.2277 32.2258 20.3481 34.1959 25.7193L36.3801 29.8156M31.7088 74.7472C31.7726 80.1893 22.5985 80.5741 22.5985 74.7472M58.5774 51.0643L58.5592 74.7024C58.5592 80.2672 68.5487 80.1845 68.4917 74.6197L68.2981 57.9914L68.0544 30.8119L72.0539 43.1692C74.787 50.5898 80.055 45.7663 78.8137 42.3807L74.213 22.4376C72.8283 16.436 43.3267 16.7335 42.3269 22.3762L41.204 28.765M48.1256 74.674C48.0664 80.7134 58.5638 80.194 58.566 74.6174M39.7532 67.8272V75.6892M39.7532 75.6892C39.7532 80.1373 31.5539 80.0854 31.6063 75.7365L31.9434 67.8272L27.8324 67.0906L33.4124 52.3676M39.7532 75.6892C39.7532 80.2412 48.219 79.939 48.1621 75.6892L47.8728 67.8272L52.3779 67.0646L46.3559 52.3912M30.463 59.5638C29.7273 60.86 29.1215 61.063 27.5636 60.5436C26.0035 60.0242 25.2063 58.4731 25.8008 57.1013L29.3151 47.5843C31.1531 43.3345 48.6335 43.436 50.4533 47.6338L54.4117 57.786C55.0062 59.1577 54.209 60.7065 52.6489 61.2283C51.091 61.7477 50.3941 60.9355 49.5263 59.6937M48.9137 45.8017L49.048 30.8143L47.4537 35.7416L46.9026 37.451M22.4641 4.2935C24.322 4.28392 26.1197 4.97507 27.5223 6.23807C28.9249 7.50107 29.8365 9.24972 30.0871 11.158C30.3378 13.0663 29.9104 15.0039 28.8847 16.6097C27.8589 18.2154 26.3049 19.3797 24.5122 19.8854C22.7195 20.3911 20.8106 20.2037 19.1414 19.3582C17.4722 18.5127 16.1565 17.0667 15.4398 15.2899C14.7231 13.5131 14.6541 11.5267 15.2459 9.70116C15.8376 7.87558 17.0497 6.33538 18.656 5.36774C19.8104 4.66441 21.1251 4.29355 22.4641 4.2935ZM58.0103 1.01175C59.6681 1.01466 61.2785 1.58565 62.5907 2.63585C63.9029 3.68605 64.8434 5.15651 65.2657 6.81833C65.688 8.48014 65.5684 10.2401 64.9255 11.8241C64.2827 13.4082 63.1527 14.7274 61.7114 15.5766C60.856 16.1055 59.9078 16.4529 58.9217 16.5986C57.9357 16.7443 56.9316 16.6854 55.9677 16.4254C55.0038 16.1653 54.0994 15.7092 53.3071 15.0836C52.5147 14.4581 51.8502 13.6755 51.3521 12.7814C50.8541 11.8873 50.5324 10.8995 50.4059 9.87539C50.2793 8.8513 50.3504 7.81134 50.6149 6.81597C50.8795 5.82059 51.3323 4.88965 51.9469 4.07724C52.5616 3.26483 53.3259 2.58717 54.1954 2.08363C55.3513 1.37819 56.6689 1.00797 58.0103 1.01175ZM40.1062 29.6621C41.4576 29.6621 42.7787 30.0775 43.9023 30.8558C45.026 31.6341 45.9017 32.7403 46.4189 34.0345C46.936 35.3288 47.0713 36.7529 46.8077 38.1268C46.5441 39.5008 45.8933 40.7628 44.9377 41.7534C43.9822 42.744 42.7647 43.4186 41.4392 43.6919C40.1138 43.9652 38.74 43.8249 37.4915 43.2888C36.243 42.7527 35.1758 41.8449 34.425 40.6801C33.6742 39.5153 33.2735 38.1459 33.2735 36.745C33.2735 34.8665 33.9934 33.065 35.2748 31.7367C36.5562 30.4084 38.2941 29.6621 40.1062 29.6621Z" stroke="#4F78AB" stroke-width="1.5" stroke-linecap="round" stroke-linejoin="round"/>
</svg>
