<svg width="80" height="80" viewBox="0 0 80 80" fill="none" xmlns="http://www.w3.org/2000/svg">
<path d="M39.7661 51.1744L39.7494 74.8675C39.7494 80.4414 49.9548 80.3638 49.9001 74.7828L49.7146 60.0446L49.4768 32.801M30.6167 32.8034L30.3788 60.047L30.1933 74.7852C30.1386 80.3638 39.7399 80.4485 39.7375 74.8699M15.4477 55.9907L15.4335 75.2981C15.4335 80.2955 24.5829 80.225 24.5329 75.2228L24.3664 62.2116L24.3331 59.9411M7.01659 49.205C6.1485 51.6755 4.97837 52.6331 3.90337 52.7084C0.174161 53.1296 1.08744 47.7275 1.12549 45.0876C1.20635 39.676 1.30149 35.2856 2.00071 32.1469C2.43832 29.5423 9.6375 28.1659 16.5346 28.1965C18.9922 28.2599 23.9926 28.548 24.3331 29.1933M7.25442 37.7843L7.04513 62.2045L6.87865 75.2158C6.8287 80.2179 15.4406 80.2908 15.4406 75.291M64.1153 55.9883L64.1011 75.2957C64.1011 80.2932 73.2505 80.2226 73.2005 75.2205L73.034 62.2092L72.8247 37.7914M73.0626 48.6357C74.3041 52.1649 76.1544 52.6073 77.4743 51.7979C79.6362 50.4685 78.9013 47.6828 78.7919 45.4876L78.1189 32.2034C77.9643 29.1235 69.7543 27.8836 62.3435 28.2647L55.502 29.1933M55.7888 60.4046L55.7103 62.2116L55.5438 75.2228C55.4939 80.225 64.1058 80.2979 64.1058 75.2981M24.3331 29.1933C24.4469 28.0496 24.5864 27.0557 24.7589 26.2813C25.7102 20.625 55.149 20.1662 55.3869 26.3425L55.502 29.1933M24.3331 29.1933C23.9324 33.2235 23.8523 39.1137 23.7838 43.8147C23.7409 46.7581 22.7278 52.7861 26.8756 52.3179C28.0647 52.2332 29.3799 51.1626 30.3503 48.4098L49.7431 48.4074C51.1273 52.3414 53.2036 52.8355 54.6662 51.9367C57.0755 50.4544 56.2336 47.3487 56.1361 44.897L55.502 29.1933M15.5493 11C19.6566 11 23 14.566 23 18.9678C23 21.939 21.4775 24.5325 19.2213 25.9015C18.0982 26.6163 16.7877 26.9978 15.448 27C11.3406 27 8 23.434 8 19.0322C8 16.061 9.52245 13.4675 11.776 12.0985C12.8991 11.3837 14.2095 11.0022 15.5493 11ZM64.5493 11C68.6566 11 72 14.566 72 18.9678C72 21.939 70.4776 24.5325 68.2213 25.9015C67.0982 26.6163 65.7877 26.9978 64.448 27C60.3406 27 57 23.434 57 19.0322C57 16.061 58.5225 13.4675 60.776 12.0985C61.8991 11.3837 63.2095 11.0022 64.5493 11ZM39.5624 1C44.7651 1 49 5.45747 49 10.9598C49 14.6738 47.0716 17.9156 44.2136 19.6269C42.791 20.5204 41.1311 20.9973 39.4341 21C34.2315 21 30 16.5425 30 11.0402C30 7.32619 31.9284 4.08439 34.783 2.37308C36.2055 1.47962 37.8654 1.00275 39.5624 1Z" stroke="#4F78AB" stroke-width="1.5" stroke-linecap="round" stroke-linejoin="round"/>
</svg>
