<svg width="80" height="80" viewBox="0 0 80 80" fill="none" xmlns="http://www.w3.org/2000/svg">
<path d="M69.9646 46.2708L75.0794 40.7705C83 30 77.7469 16.5001 72.4339 10.2558C70.1744 7.60026 67.5499 5.3336 64.6522 3.53494C61.0447 1.35532 49.7365 -1.82436 42.3405 5.9197L26.9914 22.3643C22.8481 26.8056 33.3039 31.1007 38.5949 25.485L42.4619 21.3822C48.1768 15.8049 55.3513 26.9825 64.2974 19.3795M10.2207 43.6707L5.11545 38.178C-9.49983 18.5 17.5714 -11.5378 34.8422 6.56589L38.2854 10.2533M50.6294 25.3567L70.3932 47.6658C74.427 52.2199 68.4359 60.8922 63.2497 55.1431L53.9845 44.8579M45.9123 51.7814L56.0942 63.0487C60.1708 67.5593 68.424 60.8896 63.2378 55.138L53.2844 44.0784M45.3085 67.0288L47.8934 69.7568C52.0105 74.2263 60.0018 67.8465 54.8679 62.041M22.3433 39.1422L22.8862 39.7268C23.7646 40.6864 24.257 41.9797 24.257 43.3271C24.257 44.6744 23.7646 45.9677 22.8862 46.9273L15.8498 54.5098C14.9588 55.4556 13.7578 55.9859 12.5066 55.9859C11.2555 55.9859 10.0545 55.4556 9.16346 54.5098L8.62055 53.9251C7.7382 52.9678 7.24305 51.6737 7.24305 50.3249C7.24305 48.9761 7.7382 47.682 8.62055 46.7247L15.6593 39.1422C16.5483 38.192 17.75 37.6588 19.0025 37.6588C20.255 37.6588 21.4567 38.192 22.3457 39.1422H22.3433ZM34.1826 42.6116L34.7255 43.1963C35.6078 44.1536 36.103 45.4477 36.103 46.7965C36.103 48.1453 35.6078 49.4394 34.7255 50.3967L23.5149 62.4692C22.6238 63.4151 21.4229 63.9453 20.1717 63.9453C18.9205 63.9453 17.7196 63.4151 16.8285 62.4692L16.2856 61.8846C15.4032 60.9273 14.9081 59.6332 14.9081 58.2844C14.9081 56.9356 15.4032 55.6414 16.2856 54.6841L27.4962 42.6116C28.3845 41.6602 29.5865 41.1261 30.8394 41.1261C32.0923 41.1261 33.2942 41.6602 34.1826 42.6116ZM38.764 53.8943L39.3069 54.479C40.1898 55.436 40.6853 56.7302 40.6853 58.0792C40.6853 59.4282 40.1898 60.7225 39.3069 61.6794L31.6228 69.9568C30.7335 70.9064 29.5319 71.4392 28.2796 71.4392C27.0273 71.4392 25.8257 70.9064 24.9364 69.9568L24.3935 69.3722C23.5106 68.4152 23.015 67.121 23.015 65.772C23.015 64.423 23.5106 63.1287 24.3935 62.1718L32.08 53.8943C32.9683 52.9429 34.1703 52.4088 35.4232 52.4088C36.6761 52.4088 37.878 52.9429 38.7664 53.8943H38.764ZM43.7049 64.6642L44.2478 65.2489C45.1262 66.2084 45.6186 67.5017 45.6186 68.8491C45.6186 70.1965 45.1262 71.4897 44.2478 72.4493L39.5283 77.524C38.6373 78.4698 37.4363 79.0001 36.1852 79.0001C34.934 79.0001 33.733 78.4698 32.842 77.524L32.2991 76.9393C31.4173 75.9817 30.9225 74.6877 30.9225 73.3391C30.9225 71.9905 31.4173 70.6965 32.2991 69.7389L37.0186 64.6565C37.9072 63.7057 39.109 63.1721 40.3617 63.1721C41.6144 63.1721 42.8163 63.7057 43.7049 64.6565V64.6642Z" stroke="#4F78AB" stroke-width="1.5" stroke-linecap="round" stroke-linejoin="round"/>
</svg>
