<svg width="48" height="48" viewBox="0 0 48 48" fill="none" xmlns="http://www.w3.org/2000/svg">
<path d="M25.4561 33.4149L31.7123 30.1149C33.1844 29.3394 36.0579 28.1624 36.0745 31.0774L37.1304 30.361C40.0941 28.3494 42.3529 29.7739 41.2443 32.5542C46.5167 28.7578 48.3774 33.5648 46.0297 34.7446L34.3749 42.0445L29.4313 45.1396C25.9334 47.3286 21.3186 47.3616 20.02 46.5943C12.6344 44.6996 10.506 42.9025 4.07361 43.7275M0.971191 30.7117L8.60235 27.6399C10.5448 26.8562 12.7273 27.0583 13.5487 27.6592L17.6807 30.6924C23.4151 34.9027 23.8799 33.8549 30.6356 34.2509C32.1327 34.3389 33.1178 36.7259 30.6356 37.6733C24.3295 40.5306 20.439 39.2491 14.6892 36.3327M17.066 13.7125L20.951 18.0548L29.5811 8.34311M24.0034 0.964844C26.4375 0.964844 28.8169 1.68014 30.8408 3.02029C32.8647 4.36043 34.4421 6.26523 35.3736 8.49381C36.3051 10.7224 36.5488 13.1747 36.0739 15.5405C35.5991 17.9063 34.4269 20.0795 32.7058 21.7852C30.9846 23.4909 28.7917 24.6525 26.4044 25.1231C24.0171 25.5937 21.5426 25.3521 19.2937 24.429C17.0449 23.5059 15.1229 21.9427 13.7705 19.937C12.4182 17.9313 11.6964 15.5733 11.6964 13.1611C11.6964 9.92647 12.9931 6.8243 15.3011 4.53705C17.6091 2.24981 20.7394 0.964844 24.0034 0.964844Z" stroke="#4F78AB" stroke-width="1.5" stroke-linecap="round" stroke-linejoin="round"/>
</svg>
