<?xml version="1.0" encoding="iso-8859-1"?>
<!-- Generator: Adobe Illustrator 23.0.5, SVG Export Plug-In . SVG Version: 6.00 Build 0)  -->
<svg version="1.1" xmlns="http://www.w3.org/2000/svg" xmlns:xlink="http://www.w3.org/1999/xlink" x="0px" y="0px"
	 viewBox="0 0 492 492" style="enable-background:new 0 0 492 492;" xml:space="preserve">
<g id="Master_Layer_2">
</g>
<g id="Layer_1">
	<g>
		<g>
			<g>
				<g>
					<g>
						<g>
							<path style="fill-rule:evenodd;clip-rule:evenodd;fill:#212121;" d="M246.272,236.84c-1.464,0-2.952-0.552-4.08-1.68
								l-73.968-73.992c-10.176-10.176-15.768-23.688-15.768-38.064s5.592-27.912,15.768-38.064
								c10.176-10.176,23.688-15.768,38.064-15.768c14.376,0,27.912,5.592,38.064,15.768l1.896,1.896l1.896-1.896
								c10.176-10.176,23.688-15.768,38.064-15.768c14.376,0,27.912,5.592,38.064,15.768s15.768,23.688,15.768,38.064
								s-5.592,27.912-15.768,38.064l-73.92,73.992C249.224,236.288,247.736,236.84,246.272,236.84L246.272,236.84z M176.36,93.176
								c-16.512,16.512-16.512,43.344,0,59.856l69.912,69.912l69.912-69.912c16.512-16.512,16.512-43.344,0-59.856
								c-16.512-16.512-43.344-16.512-59.856,0l-5.976,5.976c-2.256,2.256-5.904,2.256-8.136,0l-5.976-5.976
								C219.728,76.664,192.872,76.664,176.36,93.176L176.36,93.176z"/>
						</g>
					</g>
				</g>
				<g>
					<g>
						<g>
							<g>
								<path style="fill-rule:evenodd;clip-rule:evenodd;fill:#212121;" d="M202.808,376.184c-2.376,0-4.584-1.464-5.424-3.84
									c-6.024-16.872-3.288-33.216-0.864-47.64c2.424-14.544,4.536-27.12-2.28-37.464c-2.88-4.392-8.496-8.16-15-12.528
									c-9.984-6.72-22.416-15.072-30.144-29.904c-3.168-6.096-8.616-12.624-14.376-12.672c-0.024,0-0.048,0-0.072,0
									c-3.408,0-5.448,2.448-6.552,4.488c-2.16,3.984-2.712,9.912-1.512,16.68c1.536,8.64,5.856,18.552,12.552,28.656
									c1.752,2.664,1.032,6.216-1.632,7.992c-2.664,1.752-6.216,1.032-7.992-1.632c-7.656-11.568-12.456-22.68-14.28-33
									c-1.68-9.456-0.72-17.808,2.736-24.192c3.672-6.744,9.816-10.56,16.848-10.512c9.36,0.072,18.288,6.96,24.504,18.864
									c6.384,12.216,16.992,19.368,26.352,25.68c7.2,4.848,14.016,9.432,18.192,15.744c9.288,14.112,6.6,30.168,4.008,45.696
									c-2.28,13.68-4.656,27.792,0.36,41.856c1.056,3-0.504,6.288-3.504,7.368C204.104,376.088,203.456,376.184,202.808,376.184z"
									/>
							</g>
						</g>
						<g>
							<g>
								<path style="fill-rule:evenodd;clip-rule:evenodd;fill:#212121;" d="M121.88,376.496c-0.24,0-0.48-0.024-0.744-0.048
									c-3.144-0.408-5.376-3.288-4.968-6.456c3.072-23.904-1.344-33.528-9.456-41.28c-21.528-20.592-28.752-39.888-34.536-55.368
									c-0.36-0.936-0.696-1.872-1.056-2.808c-4.32-11.448-7.992-36.936-8.928-61.992c-0.48-13.152-0.168-25.08,0.912-34.488
									c1.368-11.856,3.912-19.728,7.752-24.048c2.352-2.64,4.896-4.56,7.512-5.712c2.928-1.272,6.048-1.56,9-0.864
									c5.376,1.296,12.744,6.432,17.232,23.568c0.264,0.96,0.576,2.808,1.344,7.248c3.144,18.312,12.72,74.04,27.576,98.328
									c1.656,2.712,0.816,6.264-1.896,7.92c-2.712,1.656-6.264,0.816-7.92-1.896c-16.032-26.184-25.536-81.552-29.112-102.408
									c-0.504-2.928-0.984-5.688-1.128-6.288c-2.904-11.088-6.888-14.808-8.784-15.264c-1.896-0.456-4.296,1.968-5.232,3.024
									c-3.384,3.792-6.912,19.272-5.76,50.448c0.888,23.568,4.32,48.096,8.208,58.344c0.36,0.936,0.696,1.872,1.056,2.832
									c5.376,14.4,12.072,32.304,31.704,51.072c6.048,5.784,9.864,11.952,11.952,19.416c2.352,8.376,2.664,18.432,0.96,31.656
									C127.208,374.36,124.736,376.496,121.88,376.496z"/>
							</g>
						</g>
					</g>
					<g>
						<g>
							<path style="fill-rule:evenodd;clip-rule:evenodd;fill:#212121;" d="M229.352,424.208c-3.192,0-5.76-2.568-5.76-5.76v-41.952
								l-122.4,0v41.952c0,3.192-2.568,5.76-5.76,5.76s-5.76-2.568-5.76-5.76v-47.712c0-3.192,2.568-5.76,5.76-5.76h133.92
								c3.192,0,5.76,2.568,5.76,5.76v47.712C235.112,421.616,232.544,424.208,229.352,424.208z"/>
						</g>
					</g>
					<g>
						<g>
							<g>
								<g>
									<path style="fill-rule:evenodd;clip-rule:evenodd;fill:#212121;" d="M289.736,376.184c-0.648,0-1.296-0.12-1.944-0.336
										c-3-1.056-4.56-4.368-3.504-7.368c5.016-14.064,2.64-28.2,0.36-41.856c-2.592-15.528-5.28-31.584,4.008-45.696
										c4.152-6.312,10.968-10.896,18.192-15.744c9.36-6.312,19.992-13.44,26.352-25.68c6.216-11.904,15.144-18.792,24.504-18.864
										c7.032-0.072,13.176,3.768,16.848,10.512c3.456,6.36,4.416,14.736,2.736,24.192c-1.824,10.32-6.624,21.432-14.28,33
										c-1.752,2.664-5.328,3.384-7.992,1.632c-2.664-1.752-3.384-5.328-1.632-7.992c6.672-10.104,11.016-20.016,12.552-28.656
										c1.2-6.768,0.672-12.672-1.512-16.68c-1.128-2.064-3.168-4.488-6.552-4.488c-0.024,0-0.048,0-0.072,0
										c-5.76,0.048-11.208,6.576-14.376,12.672c-7.728,14.832-20.16,23.184-30.144,29.904c-6.504,4.368-12.096,8.136-15,12.528
										c-6.816,10.344-4.704,22.896-2.28,37.464c2.424,14.424,5.136,30.744-0.864,47.64
										C294.32,374.72,292.088,376.184,289.736,376.184z"/>
								</g>
							</g>
							<g>
								<g>
									<path style="fill-rule:evenodd;clip-rule:evenodd;fill:#212121;" d="M370.664,376.496c-2.856,0-5.328-2.112-5.712-5.016
										c-1.704-13.224-1.392-23.28,0.96-31.656c2.112-7.464,5.904-13.632,11.952-19.416
										c19.632-18.768,26.328-36.696,31.704-51.072c0.36-0.96,0.72-1.896,1.056-2.832c3.864-10.248,7.32-34.776,8.208-58.344
										c1.176-31.176-2.376-46.656-5.76-50.448c-0.936-1.056-3.36-3.48-5.232-3.024c-1.896,0.456-5.88,4.176-8.784,15.288
										c-0.144,0.6-0.624,3.36-1.128,6.264c-3.576,20.856-13.08,76.224-29.112,102.384c-1.656,2.712-5.208,3.576-7.92,1.896
										c-2.712-1.656-3.576-5.208-1.896-7.92c14.88-24.288,24.432-80.016,27.576-98.328c0.768-4.44,1.08-6.288,1.344-7.248
										c4.488-17.136,11.856-22.272,17.232-23.568c2.952-0.72,6.072-0.408,9,0.864c2.64,1.128,5.16,3.048,7.512,5.712
										c3.864,4.32,6.408,12.192,7.752,24.048c1.08,9.432,1.392,21.36,0.912,34.488c-0.936,25.056-4.608,50.544-8.928,61.992
										c-0.336,0.912-0.696,1.848-1.056,2.808c-5.784,15.504-13.008,34.776-34.536,55.368c-8.112,7.752-12.528,17.376-9.456,41.28
										c0.408,3.144-1.824,6.048-4.968,6.456C371.144,376.472,370.904,376.496,370.664,376.496z"/>
								</g>
							</g>
						</g>
						<g>
							<g>
								<path style="fill-rule:evenodd;clip-rule:evenodd;fill:#212121;" d="M397.088,424.208c-3.192,0-5.76-2.568-5.76-5.76
									v-41.952l-122.4,0v41.952c0,3.192-2.568,5.76-5.76,5.76c-3.192,0-5.76-2.568-5.76-5.76v-47.712
									c0-3.192,2.568-5.76,5.76-5.76h133.92c3.192,0,5.76,2.568,5.76,5.76v47.712C402.848,421.616,400.28,424.208,397.088,424.208
									z"/>
							</g>
						</g>
					</g>
				</g>
			</g>
		</g>
	</g>
</g>
</svg>
