<svg id="Appointment" xmlns="http://www.w3.org/2000/svg" viewBox="0 0 512 512"><path d="M223.7988,205.189a22.9526,22.9526,0,1,0,22.9522,22.9531A22.9793,22.9793,0,0,0,223.7988,205.189Zm0,32.9052a9.9526,9.9526,0,1,1,9.9522-9.9521A9.964,9.964,0,0,1,223.7988,238.0942Z"/><path d="M130.8291,205.189a22.9526,22.9526,0,1,0,22.9531,22.9531A22.9784,22.9784,0,0,0,130.8291,205.189Zm0,32.9052a9.9526,9.9526,0,1,1,9.9531-9.9521A9.9638,9.9638,0,0,1,130.8291,238.0942Z"/><path d="M316.7676,251.0942a22.9526,22.9526,0,1,0-22.9531-22.9521A22.9776,22.9776,0,0,0,316.7676,251.0942Zm0-32.9052a9.9526,9.9526,0,1,1-9.9531,9.9531A9.964,9.964,0,0,1,316.7676,218.189Z"/><path d="M223.7988,282.8921a22.9527,22.9527,0,1,0,22.9522,22.9531A22.9793,22.9793,0,0,0,223.7988,282.8921Zm0,32.9053a9.9527,9.9527,0,1,1,9.9522-9.9522A9.9641,9.9641,0,0,1,223.7988,315.7974Z"/><path d="M130.8291,282.8921a22.9527,22.9527,0,1,0,22.9531,22.9531A22.9785,22.9785,0,0,0,130.8291,282.8921Zm0,32.9053a9.9527,9.9527,0,1,1,9.9531-9.9522A9.9639,9.9639,0,0,1,130.8291,315.7974Z"/><path d="M402.6875,266.8392V103.6226A25.9656,25.9656,0,0,0,376.751,77.686h-51.13V49.9819h-13V77.686H134.4756V49.9819h-13V77.686H70.3447a25.9656,25.9656,0,0,0-25.9365,25.9366V159.64a6.4758,6.4758,0,0,0,.501,2.5032V359.99a25.9655,25.9655,0,0,0,25.9365,25.9366H268.8589A100.9158,100.9158,0,1,0,402.6875,266.8392ZM70.3447,90.686h51.1309v31.2266h13V90.686H312.6211v31.2266h13V90.686h51.13a12.9517,12.9517,0,0,1,12.9365,12.9366v48.9043H57.4082V103.6226A12.9517,12.9517,0,0,1,70.3447,90.686Zm.501,282.24A12.9517,12.9517,0,0,1,57.9092,359.99V166.14H389.6875v96.7017A100.9113,100.9113,0,0,0,266.4626,372.9263Zm295.833,76.0918a87.9126,87.9126,0,1,1,87.9131-87.9131A88.0123,88.0123,0,0,1,366.6787,449.0181Z"/><path d="M421.2871,330.9009H396.8828V306.4976a6.5,6.5,0,0,0-6.5-6.5H342.9746a6.5,6.5,0,0,0-6.5,6.5v24.4033H312.0713a6.5,6.5,0,0,0-6.5,6.5v47.4082a6.5,6.5,0,0,0,6.5,6.5h24.4033v24.4033a6.5,6.5,0,0,0,6.5,6.5h47.4082a6.5,6.5,0,0,0,6.5-6.5V391.3091h24.4043a6.5,6.5,0,0,0,6.5-6.5V337.4009A6.5,6.5,0,0,0,421.2871,330.9009Zm-6.5,47.4082H390.3828a6.5,6.5,0,0,0-6.5,6.5v24.4033H349.4746V384.8091a6.5,6.5,0,0,0-6.5-6.5H318.5713V343.9009h24.4033a6.5,6.5,0,0,0,6.5-6.5V312.9976h34.4082v24.4033a6.5,6.5,0,0,0,6.5,6.5h24.4043Z"/></svg>