<svg width="44" height="80" viewBox="0 0 44 80" fill="none" xmlns="http://www.w3.org/2000/svg">
<path d="M22.0608 51.6663V74.0117M22.0608 74.0117C22.0608 74.0117 21.5002 79.0117 27.5002 79.0117C33.5002 79.0117 33.0002 74.2301 33.0002 74.2301C32.805 68.6775 32.5002 60.0117 32.5002 60.0117L31.9848 46.9821M22.0608 74.0117C22.0608 74.0117 21.5002 79.0117 16.0002 79.0117C10.5002 79.0117 10.9454 74.0117 10.9454 74.0117L11.5002 61.0117L12.0002 47.0117M31.9848 35.0117V46.9821M31.9848 46.9821C34.9502 53.5757 44.9087 50.3923 42.6638 44.6275L37.0343 24.7823C36.3741 23.0856 33.8335 20.6693 32.0651 20.9325C21.1364 19.7062 18.9547 20.0114 11.3617 20.8653C9.5933 20.6021 7.0556 23.0184 6.39247 24.7123L1.34004 44.5575C-0.90772 50.3223 9.54004 53.2273 12.0002 47.0117M31.9848 46.9821H21.7507L12.0002 47.0117M12.0002 47.0117V35.0117M21.7737 1.01173C23.7309 1.01078 25.6333 1.642 27.1839 2.80682C28.7345 3.97163 29.8459 5.60446 30.3446 7.45033C30.8433 9.2962 30.7013 11.2512 29.9406 13.01C29.18 14.7688 27.8435 16.2325 26.14 17.1723C24.1045 18.3177 21.6859 18.6276 19.4162 18.0337C17.1464 17.4399 15.2115 15.991 14.0371 14.0057C12.8628 12.0205 12.5451 9.66157 13.1539 7.44787C13.7628 5.23418 15.2484 3.34706 17.2839 2.20166C18.6444 1.42044 20.1949 1.00951 21.7737 1.01173Z" stroke="#4F78AB" stroke-width="1.5" stroke-linecap="round" stroke-linejoin="round"/>
</svg>
