<svg width="48" height="48" viewBox="0 0 48 48" fill="none" xmlns="http://www.w3.org/2000/svg">
<path d="M38.4 0H9C2.84914 0.00685714 0.00685714 3.44914 0 9.6V38.4C0.00685714 44.5509 3 48 9 48H38.4C44.5509 47.9931 47.9931 44.5509 48 38.4V9.6C47.9931 3.44914 44.5509 0.00685714 38.4 0ZM46.2 38.4C46.2 43.2 43.2 46.2 38.4 46.2H9C4.74171 46.2 1.8 43.2583 1.8 38.4V9.6C1.8 4.5 4.5 1.8 9 1.8H38.4C43.2 1.8 46.2 4.8 46.2 9.6V38.4Z" fill="white"/>
<path d="M24.3001 12C17.6718 12 12.3 17.3717 12.3 24C12.3 30.6283 17.6718 36 24.3001 36C30.9283 36 36.3001 30.6283 36.3001 24C36.3001 20.6869 34.9561 17.6853 32.7843 15.5157C30.6254 13.344 27.6345 12 24.3321 12C24.3214 12 24.3107 12 24.3001 12ZM24.3001 34.2C18.9 34.2 14.1 29.7 14.1 24C14.1 19.1403 18.9 13.8 24.3001 13.8C29.7001 13.8 34.5001 18.6 34.5001 24C34.5001 29.7 30.3001 34.2 24.3001 34.2Z" fill="white"/>
<path d="M42 9C42 10.656 40.656 12 39 12C37.344 12 36 10.656 36 9C36 7.344 37.344 6 39 6C40.656 6 42 7.344 42 9Z" fill="white"/>
</svg>
