<svg width="48" height="48" viewBox="0 0 48 48" fill="none" xmlns="http://www.w3.org/2000/svg">
<path d="M41.1724 33.612L45.31 33.4369C46.2154 33.3985 47 32.6514 47 31.7435V12.0315M35.9801 1H2.69144C2.24343 1.00113 1.81408 1.17971 1.49715 1.49673C1.18023 1.81376 1.0015 2.24347 1 2.692V31.7378C1.00661 32.1849 1.18693 32.6118 1.50272 32.9279C1.8185 33.2441 2.2449 33.4246 2.69144 33.4312L23.1394 33.6063M35.9801 1L46.9986 12.0315H37.6715C37.2233 12.0303 36.7937 11.8516 36.4767 11.5342C36.1598 11.2169 35.9812 10.7868 35.9801 10.338V1ZM6.9243 8.37138H30.0217M6.9243 13.6566H30.0217M6.9243 18.9404H30.0217M24.9346 36.4339L21.084 43.4509L28.353 47L32.2063 40.999L36.0582 47L43.4295 43.4765L39.5349 36.034M32.1281 23.9353C33.7724 23.9353 35.3798 24.4234 36.7469 25.338C38.1141 26.2526 39.1797 27.5525 39.8089 29.0734C40.4382 30.5943 40.6028 32.2679 40.282 33.8825C39.9612 35.4971 39.1694 36.9801 38.0068 38.1442C36.8441 39.3082 35.3627 40.101 33.75 40.4221C32.1374 40.7433 30.4658 40.5785 28.9467 39.9485C27.4275 39.3185 26.1291 38.2517 25.2156 36.8829C24.3021 35.5141 23.8145 33.9049 23.8145 32.2587C23.8145 30.0512 24.6904 27.9341 26.2495 26.3731C27.8086 24.8122 29.9232 23.9353 32.1281 23.9353ZM32.1281 28.2912C31.3447 28.2912 30.5788 28.5238 29.9273 28.9596C29.2759 29.3954 28.7681 30.0148 28.4683 30.7395C28.1685 31.4642 28.09 32.2616 28.2429 33.031C28.3957 33.8003 28.773 34.507 29.327 35.0616C29.881 35.6163 30.5869 35.994 31.3553 36.1471C32.1237 36.3001 32.9202 36.2216 33.6441 35.9214C34.3679 35.6212 34.9866 35.1129 35.4219 34.4606C35.8572 33.8084 36.0895 33.0416 36.0895 32.2572C36.0895 31.2054 35.6722 30.1966 34.9293 29.4528C34.1864 28.709 33.1788 28.2912 32.1281 28.2912Z" stroke="#4F78AB" stroke-width="1.5" stroke-miterlimit="22.93"/>
</svg>
