<svg width="51" height="64" viewBox="0 0 51 64" fill="none" xmlns="http://www.w3.org/2000/svg">
<path d="M25.5011 1.19531C29.6387 1.19652 33.7074 2.23128 37.3212 4.20144C40.935 6.1716 43.9741 9.01183 46.1502 12.4527C48.3264 15.8936 49.5673 19.821 49.7554 23.8624C49.9435 27.9038 49.0724 31.9252 47.2249 35.545C44.0986 41.6518 28.2523 51.2589 25.4627 62.8072C20.9355 51.5984 6.9036 41.6518 3.77727 35.545C1.92975 31.9252 1.05871 27.9038 1.24679 23.8624C1.43486 19.821 2.67581 15.8936 4.85192 12.4527C7.02803 9.01183 10.0671 6.1716 13.681 4.20144C17.2948 2.23128 21.3635 1.19652 25.5011 1.19531V1.19531ZM25.5011 12.9091C27.8819 12.9091 30.2093 13.5994 32.1889 14.8927C34.1685 16.186 35.7114 18.0242 36.6225 20.1749C37.5336 22.3256 37.772 24.6921 37.3075 26.9753C36.8431 29.2585 35.6966 31.3557 34.0131 33.0018C32.3296 34.6478 30.1846 35.7688 27.8495 36.223C25.5144 36.6771 23.094 36.444 20.8944 35.5532C18.6948 34.6623 16.8148 33.1537 15.492 31.2182C14.1693 29.2826 13.4633 27.007 13.4633 24.6791C13.4633 21.5575 14.7316 18.5637 16.9891 16.3564C19.2466 14.1491 22.3085 12.9091 25.5011 12.9091V12.9091Z" stroke="#4F78AB" stroke-width="1.5" stroke-linecap="round" stroke-linejoin="round"/>
</svg>
