<svg width="34" height="42" viewBox="0 0 34 42" fill="none" xmlns="http://www.w3.org/2000/svg">
<path d="M17 1.01172C19.7267 1.01254 22.4079 1.71792 24.7894 3.06096C27.1709 4.40399 29.1736 6.34013 30.6077 8.68573C32.0417 11.0313 32.8595 13.7086 32.9835 16.4636C33.1074 19.2185 32.5334 21.9599 31.3159 24.4275C29.2556 28.5904 18.8131 33.1394 16.9747 41.0117C13.9913 33.3708 4.74436 28.5904 2.68412 24.4275C1.46661 21.9599 0.892605 19.2185 1.01655 16.4636C1.14049 13.7086 1.95827 11.0313 3.39231 8.68573C4.82636 6.34013 6.82912 4.40399 9.2106 3.06096C11.5921 1.71792 14.2733 1.01254 17 1.01172ZM17 8.99682C18.569 8.99682 20.1027 9.46739 21.4072 10.349C22.7118 11.2307 23.7286 12.4838 24.329 13.9499C24.9294 15.4159 25.0865 17.0292 24.7804 18.5856C24.4743 20.142 23.7188 21.5717 22.6094 22.6938C21.4999 23.8159 20.0864 24.58 18.5476 24.8896C17.0088 25.1992 15.4138 25.0403 13.9642 24.433C12.5147 23.8257 11.2758 22.7974 10.4041 21.4779C9.53243 20.1585 9.06717 18.6072 9.06717 17.0203C9.06717 14.8923 9.90295 12.8515 11.3906 11.3468C12.8783 9.84215 14.8961 8.99682 17 8.99682Z" stroke="#4F78AB" stroke-width="1.5" stroke-linecap="round" stroke-linejoin="round"/>
</svg>
