<svg width="14" height="18" viewBox="0 0 14 18" fill="none" xmlns="http://www.w3.org/2000/svg">
<path d="M7 1C8.0225 1.00031 9.02797 1.26903 9.92102 1.78066C10.8141 2.29229 11.5651 3.02987 12.1029 3.92343C12.6407 4.81699 12.9473 5.8369 12.9938 6.88642C13.0403 7.93593 12.825 8.98024 12.3685 9.92029C11.5959 11.5062 7.6799 14.001 6.99052 17C5.87173 14.0892 2.40413 11.5062 1.63155 9.92029C1.17498 8.98024 0.959727 7.93593 1.0062 6.88642C1.05268 5.8369 1.35935 4.81699 1.89712 3.92343C2.43488 3.02987 3.18592 2.29229 4.07898 1.78066C4.97203 1.26903 5.9775 1.00031 7 1ZM7 4.04194C7.58836 4.04194 8.16351 4.22121 8.65272 4.55707C9.14192 4.89293 9.52321 5.3703 9.74837 5.92881C9.97352 6.48733 10.0324 7.1019 9.91765 7.69481C9.80287 8.28773 9.51954 8.83236 9.10351 9.25982C8.68747 9.68729 8.15741 9.9784 7.58036 10.0963C7.0033 10.2143 6.40516 10.1537 5.86159 9.9224C5.31801 9.69106 4.85341 9.29929 4.52654 8.79664C4.19966 8.29399 4.02519 7.70304 4.02519 7.09851C4.02519 6.28786 4.33861 5.51041 4.89649 4.93719C5.45438 4.36397 6.21103 4.04194 7 4.04194Z" stroke="#3D3D3D" stroke-linecap="round" stroke-linejoin="round"/>
</svg>
