<svg width="26" height="34" viewBox="0 0 26 34" fill="none" xmlns="http://www.w3.org/2000/svg">
<path d="M13 1.00781C15.045 1.00844 17.0559 1.54587 18.842 2.56914C20.6282 3.5924 22.1302 5.06756 23.2058 6.85468C24.2813 8.6418 24.8946 10.6816 24.9876 12.7806C25.0805 14.8797 24.65 16.9683 23.7369 18.8484C22.1917 22.0201 14.3598 27.0099 12.981 33.0078C10.7435 27.1862 3.80827 22.0201 2.26309 18.8484C1.34996 16.9683 0.919454 14.8797 1.01241 12.7806C1.10536 10.6816 1.7187 8.6418 2.79423 6.85468C3.86977 5.06756 5.37184 3.5924 7.15795 2.56914C8.94407 1.54587 10.955 1.00844 13 1.00781ZM13 7.0917C14.1767 7.0917 15.327 7.45023 16.3054 8.12195C17.2838 8.79367 18.0464 9.74841 18.4967 10.8654C18.947 11.9825 19.0649 13.2116 18.8353 14.3974C18.6057 15.5833 18.0391 16.6725 17.207 17.5275C16.3749 18.3824 15.3148 18.9646 14.1607 19.2005C13.0066 19.4364 11.8103 19.3153 10.7232 18.8526C9.63603 18.3899 8.70682 17.6064 8.05307 16.6011C7.39932 15.5958 7.05038 14.4139 7.05038 13.2048C7.05038 11.5835 7.67721 10.0286 8.79298 8.88219C9.90875 7.73576 11.4221 7.0917 13 7.0917Z" stroke="#314B6B" stroke-width="1.5" stroke-linecap="round" stroke-linejoin="round"/>
</svg>
