<svg width="60" height="80" viewBox="0 0 60 80" fill="none" xmlns="http://www.w3.org/2000/svg">
<path d="M49.8032 51.747L57.3361 72.0477L46.7788 72.1497L38.1 79L30.5297 58.6066M9.91447 50.7366L2.09448 72.0477L13.6809 72.1497L21.3329 79L26.6513 64.4883M24.7307 24.5659L13.5293 26.1881L21.6293 34.021L19.7157 45.096L29.734 39.861L39.7499 45.0891L37.8363 34.0141L45.9387 26.1881L34.7373 24.5659L29.734 14.4851L24.7307 24.5659ZM30 1C24.2643 1 18.6575 2.68901 13.8885 5.85345C9.11945 9.01789 5.40245 13.5156 3.20751 18.7779C1.01257 24.0402 0.438269 29.8306 1.55724 35.417C2.67621 41.0034 5.43819 46.1349 9.49391 50.1624C13.5496 54.19 18.7169 56.9328 24.3424 58.044C29.9678 59.1552 35.7988 58.5849 41.0978 56.4052C46.3969 54.2255 50.9261 50.5343 54.1126 45.7984C57.2992 41.0624 59 35.4945 59 29.7987C59 26.0168 58.2499 22.2719 56.7925 18.7779C55.3351 15.2839 53.199 12.1091 50.5061 9.43494C47.8132 6.76073 44.6163 4.63944 41.0978 3.19217C37.5794 1.7449 33.8083 1 30 1Z" stroke="#4F78AB" stroke-width="1.5" stroke-linecap="round" stroke-linejoin="round"/>
</svg>
