<?xml version="1.0" ?><!-- Uploaded to: SVG Repo, www.svgrepo.com, Generator: SVG Repo Mixer Tools -->
<svg width="800px" height="800px" viewBox="0 0 100 100" data-name="Layer 1" id="Layer_1" xmlns="http://www.w3.org/2000/svg"><defs><style>.cls-1,.cls-2{fill:none;stroke:#4F78AB;stroke-linejoin:round;stroke-width:2px;}.cls-2{stroke-linecap:round;}</style></defs><path class="cls-1" d="M14.81,27.88H44.62a1.1,1.1,0,0,1,1.1,1.1v2.2a.35.35,0,0,1-.35.35H14.06a.35.35,0,0,1-.35-.35V29a1.1,1.1,0,0,1,1.1-1.1Z" transform="translate(-12.31 29.71) rotate(-45)"/><path class="cls-1" d="M26.58,15.43l-9.35,9.35-1.8,1.8a1.36,1.36,0,0,1-1.94,0l-.64-.64a1.38,1.38,0,0,1,0-2L24,12.85a1.38,1.38,0,0,1,2,0l.64.64A1.36,1.36,0,0,1,26.58,15.43Z"/><path class="cls-1" d="M20.88,21.14l3.54-3.55,1.16,4.24a2.25,2.25,0,0,0,.59,1l3.91,3.92-1.55,1.55-1.77,1.77-3.92-3.91a2.25,2.25,0,0,0-1-.59l-4.24-1.16,3.55-3.54"/><path class="cls-1" d="M38.9,23.11,66.69,50.9a1.1,1.1,0,0,1,0,1.56l-.47.47,1.34,1.35a1.09,1.09,0,0,1,0,1.53L55.81,67.56a1.09,1.09,0,0,1-1.53,0l-1.35-1.34-.47.47a1.1,1.1,0,0,1-1.56,0L23.11,38.9Z"/><path class="cls-2" d="M48,57,30.24,39.29a.72.72,0,0,1,0-1l1-1"/><path class="cls-2" d="M50.58,59.63l1.94,1.94a.82.82,0,0,0,1.16,0h0l.91-.91"/><line class="cls-1" x1="37.14" x2="52.92" y1="53.45" y2="37.66"/><path class="cls-2" d="M73,67.43l-5.5,5.51a1.34,1.34,0,0,1-1.66.18l-9.52-6L67.08,56.29l6.07,9.48A1.32,1.32,0,0,1,73,67.43Z"/><path class="cls-2" d="M78.34,66.64h.95a0,0,0,0,1,0,0V90.51a.47.47,0,0,1-.47.47h0a.47.47,0,0,1-.47-.47V66.64A0,0,0,0,1,78.34,66.64Z" transform="translate(-32.64 78.81) rotate(-45)"/></svg>