<?xml version="1.0" ?>
<!DOCTYPE svg  PUBLIC '-//W3C//DTD SVG 1.1//EN'  'http://www.w3.org/Graphics/SVG/1.1/DTD/svg11.dtd'>
<!-- Uploaded to: SVG Repo, www.svgrepo.com, Generator: SVG Repo Mixer Tools -->
<svg fill="#4F78AB" width="800px" height="800px" viewBox="0 0 100 100" version="1.1" xml:space="preserve" xmlns="http://www.w3.org/2000/svg" xmlns:xlink="http://www.w3.org/1999/xlink">
<g id="_x31_"/>
<g id="_x32_"/>
<g id="_x33_"/>
<g id="_x34_">
<path d="M85,73.1h-9.7c-1.1,0-2-0.9-2-2c0-2.9-2.4-5.3-5.3-5.3c-2.9,0-5.3,2.4-5.3,5.3c0,1.1-0.9,2-2,2H39.3c-1.1,0-2-0.9-2-2   c0-2.9-2.4-5.3-5.3-5.3c-2.9,0-5.3,2.4-5.3,5.3c0,1.1-0.9,2-2,2H15c-1.1,0-2-0.9-2-2V33.2c0-3.4,2.8-6.2,6.2-6.2h37.4   c1.1,0,2,0.9,2,2v18.3h26.1c0.9,0,1.7,0.6,1.9,1.4c0.2,0.6,0.3,1.2,0.3,1.8v20.5C87,72.2,86.1,73.1,85,73.1z M77.1,69.1H83V51.3   H56.6c-1.1,0-2-0.9-2-2V31H19.2C18,31,17,32,17,33.2v35.9h5.8c0.9-4.2,4.6-7.3,9.1-7.3c4.5,0,8.2,3.1,9.1,7.3h17.8   c0.9-4.2,4.6-7.3,9.1-7.3C72.4,61.8,76.1,64.9,77.1,69.1z M42.4,59.7h-8.3c-1.1,0-2-0.9-2-2v-4.2h-4.2c-1.1,0-2-0.9-2-2v-8.3   c0-1.1,0.9-2,2-2h4.2V37c0-1.1,0.9-2,2-2h8.3c1.1,0,2,0.9,2,2v4.2h4.2c1.1,0,2,0.9,2,2v8.3c0,1.1-0.9,2-2,2h-4.2v4.2   C44.4,58.8,43.5,59.7,42.4,59.7z M36.1,55.7h4.3v-4.2c0-1.1,0.9-2,2-2h4.2v-4.3h-4.2c-1.1,0-2-0.9-2-2V39h-4.3v4.2c0,1.1-0.9,2-2,2   h-4.2v4.3h4.2c1.1,0,2,0.9,2,2V55.7z M49.2,31H37.9c-1.1,0-2-0.9-2-2v-5.6c0-2.1,1.7-3.8,3.8-3.8h7.7c2.1,0,3.8,1.7,3.8,3.8V29   C51.2,30.1,50.3,31,49.2,31z M39.9,27h7.3v-3.4h-7.3V27z M68,80.4c-5.1,0-9.3-4.2-9.3-9.3c0-5.1,4.2-9.3,9.3-9.3   c5.1,0,9.3,4.2,9.3,9.3C77.3,76.2,73.1,80.4,68,80.4z M68,65.8c-2.9,0-5.3,2.4-5.3,5.3c0,2.9,2.4,5.3,5.3,5.3   c2.9,0,5.3-2.4,5.3-5.3C73.3,68.1,70.9,65.8,68,65.8z M32,80.4c-5.1,0-9.3-4.2-9.3-9.3c0-5.1,4.2-9.3,9.3-9.3   c5.1,0,9.3,4.2,9.3,9.3C41.3,76.2,37.1,80.4,32,80.4z M32,65.8c-2.9,0-5.3,2.4-5.3,5.3c0,2.9,2.4,5.3,5.3,5.3   c2.9,0,5.3-2.4,5.3-5.3C37.3,68.1,34.9,65.8,32,65.8z M82.4,51.3H56.6c-1.1,0-2-0.9-2-2V30.6c0-1.1,0.9-2,2-2h5.9   c1.7,0,3.3,0.7,4.4,1.8l15.9,15.9c0.7,0.6,1.1,1.4,1.4,2.3c0.2,0.6,0.1,1.3-0.3,1.8C83.7,51,83.1,51.3,82.4,51.3z M58.6,47.3h19.5   l-14-14c-0.4-0.4-1-0.6-1.6-0.6h-3.9V47.3z"/>
</g>
<g id="_x35_"/>
<g id="_x36_"/>
<g id="_x37_"/>
<g id="_x38_"/>
<g id="_x39_"/>
<g id="_x31_0"/>
<g id="_x31_1"/>
<g id="_x31_2"/>
<g id="_x31_3"/>
<g id="_x31_4"/>
<g id="_x31_5"/>
<g id="_x31_6"/>
<g id="_x31_7"/>
<g id="_x31_8"/>
<g id="_x31_9"/>
<g id="_x32_0"/>
<g id="_x32_1"/>
<g id="_x32_2"/>
<g id="_x32_3"/>
<g id="_x32_4"/>
<g id="_x32_5"/>
</svg>