<?xml version="1.0" encoding="iso-8859-1"?>
<!-- Uploaded to: SVG Repo, www.svgrepo.com, Generator: SVG Repo Mixer Tools -->
<svg fill="#000000" height="800px" width="800px" version="1.1" id="Layer_1" xmlns="http://www.w3.org/2000/svg" xmlns:xlink="http://www.w3.org/1999/xlink" 
	 viewBox="0 0 504.938 504.938" xml:space="preserve">
<g transform="translate(1 1)">
	<g>
		<path d="M501.29,51.966l-12.359-12.359L464.214,14.89L450.972,1.648c-3.531-3.531-8.828-3.531-12.359,0
			c-3.531,3.531-3.531,8.828,0,12.359l7.062,7.062l-56.497,56.497L357.4,45.786c-3.531-3.531-8.828-3.531-12.359,0l-24.717,24.717
			c-1.766,1.766-2.648,3.531-2.648,6.179c0,2.648,0.883,4.414,2.648,6.179l6.179,6.179l-50.317,50.317c0,0,0,0-0.001,0.001
			l-93.571,93.571c0,0,0,0-0.001,0.001s0,0-0.001,0.001l-56.496,56.496c-3.531,3.531-3.531,8.828,0,12.359l19.421,19.421
			L127,339.745l-26.483,26.483c-7.851,7.851-9.351,19.164-4.506,28.341L1.648,488.931c-3.531,3.531-3.531,8.828,0,12.359
			c1.766,1.766,3.531,2.648,6.179,2.648c2.648,0,4.414-0.883,6.179-2.648l93.95-93.95c3.829,2.488,8.344,3.909,12.864,3.909
			c7.062,0,12.359-2.648,16.772-7.945l26.483-26.483l18.538-18.538l18.538,18.538c1.766,1.766,3.531,2.648,6.179,2.648
			c2.648,0,4.414-0.883,6.179-2.648l150.069-150.069l50.317-50.317l6.179,6.179c1.766,1.766,3.531,2.648,6.179,2.648
			c1.766,0,4.414-0.883,6.179-2.648l24.717-24.717c3.531-3.531,3.531-8.828,0-12.359l-30.897-30.897l56.497-56.497l6.179,6.179
			c1.766,1.766,3.531,2.648,6.179,2.648c1.766,0,4.414-0.883,6.179-2.648C504.821,60.793,504.821,55.497,501.29,51.966z
			 M320.324,170.255L363.579,127l12.359,12.359l-43.255,43.255L320.324,170.255z M338.862,102.283l12.8,12.8l-43.697,43.697
			l-13.241-13.241L338.862,102.283z M125.234,390.945c-1.766,2.648-6.179,2.648-8.828,0l-3.531-3.531
			c-2.648-1.766-2.648-6.179,0-8.828l20.303-20.303l12.359,12.359L125.234,390.945z M157.897,357.4l-12.359-12.359l11.917-11.917
			l12.359,12.359L157.897,357.4z M208.214,358.283l-62.676-62.676l43.697-43.697l24.276,24.276c1.766,1.766,3.531,2.648,6.179,2.648
			c2.648,0,5.297-0.883,6.179-2.648c3.531-3.531,3.531-8.828,0-12.359l-24.276-24.276l18.979-18.979l24.717,24.717
			c1.766,1.766,3.531,2.648,6.179,2.648c1.766,0,4.414-0.883,6.179-2.648c3.531-3.531,3.531-8.828,0-12.359l-24.717-24.717
			l18.538-18.538l24.717,24.717c1.766,1.766,3.531,2.648,6.179,2.648c2.648,0,4.414-0.883,6.179-2.648
			c3.531-3.531,3.531-8.828,0-12.359l-24.717-24.717l18.979-18.979l18.979,18.979l24.717,24.717l18.979,18.979L208.214,358.283z
			 M357.4,208.214l-12.359-12.359l43.697-43.697l12.8,12.8L357.4,208.214z M426.255,164.076l-6.179-6.179l-24.717-24.717
			l-24.717-24.717l-25.6-25.6l-6.179-6.179l12.359-12.359L383,96.103c0,0,0,0,0,0l24.717,24.717c0,0,0,0,0.001,0.001l30.896,30.896
			L426.255,164.076z M413.014,101.4l-6.131-6.131l-6.228-6.228l56.497-56.497l12.359,12.359L413.014,101.4z"/>
	</g>
</g>
</svg>