<?xml version="1.0" ?>
<!-- Uploaded to: SVG Repo, www.svgrepo.com, Generator: SVG Repo Mixer Tools -->
<svg width="800px" height="800px" viewBox="0 0 512 512" id="Layer_1" version="1.1" xml:space="preserve" xmlns="http://www.w3.org/2000/svg" xmlns:xlink="http://www.w3.org/1999/xlink">
<style type="text/css">
	.st0{fill:none;stroke:#4F78AB;stroke-width:15;stroke-linejoin:round;stroke-miterlimit:10;}
	.st1{fill:#FFFFFF;stroke:#4F78AB;stroke-width:15;stroke-linejoin:round;stroke-miterlimit:10;}
	.st2{fill:#FFFFFF;stroke:#4F78AB;stroke-width:10;stroke-linecap:round;stroke-linejoin:round;stroke-miterlimit:10;}
	.st3{fill:#FFFFFF;stroke:#4F78AB;stroke-width:15;stroke-linecap:round;stroke-linejoin:round;stroke-miterlimit:10;}
	.st4{fill:none;stroke:#4F78AB;stroke-width:15;stroke-linecap:round;stroke-linejoin:round;stroke-miterlimit:10;}
	.st5{fill:none;stroke:#4F78AB;stroke-width:10;stroke-linecap:round;stroke-linejoin:round;stroke-miterlimit:10;}
	.st6{fill:#FFFFFF;stroke:#4F78AB;stroke-width:8;stroke-linecap:round;stroke-linejoin:round;stroke-miterlimit:10;}
	.st7{fill:#FFFFFF;stroke:#4F78AB;stroke-width:10;stroke-linejoin:round;stroke-miterlimit:10;}
	.st8{fill:#FFFFFF;stroke:#4F78AB;stroke-width:12;stroke-linecap:round;stroke-linejoin:round;stroke-miterlimit:10;}
	.st9{fill:none;stroke:#4F78AB;stroke-width:8;stroke-linecap:round;stroke-linejoin:round;stroke-miterlimit:10;}
	.st10{fill:none;stroke:#4F78AB;stroke-width:7;stroke-linecap:round;stroke-linejoin:round;stroke-miterlimit:10;}
	.st11{fill:none;stroke:#4F78AB;stroke-width:12;stroke-linejoin:round;stroke-miterlimit:10;}
	.st12{fill:#FFFFFF;stroke:#4F78AB;stroke-width:10;stroke-miterlimit:10;}
	.st13{fill:none;stroke:#4F78AB;stroke-width:12;stroke-linecap:round;stroke-linejoin:round;stroke-miterlimit:10;}
	.st14{fill:none;stroke:#4F78AB;stroke-width:10;stroke-linejoin:round;stroke-miterlimit:10;}
	.st15{fill:#FFFFFF;stroke:#4F78AB;stroke-width:15;stroke-miterlimit:10;}
	.st16{fill:#FFFFFF;stroke:#4F78AB;stroke-width:15;stroke-linecap:round;stroke-miterlimit:10;}
</style>
<g>
<g>
<path d="M256,82.4c-10.4,0-18.8-8.5-18.8-18.9c0-10.4,8.5-18.8,18.8-18.8s18.8,8.5,18.8,18.8C274.8,74,266.4,82.4,256,82.4z     M256,54.7c-4.9,0-8.8,4-8.8,8.8s4,8.9,8.8,8.9s8.8-4,8.8-8.9S260.9,54.7,256,54.7z"/>
</g>
<g>
<path d="M317.4,115.6H194.6c-4.1,0-7.5-3.4-7.5-7.5V73c0-9.4,7.6-17,17-17h35.1c4.1,0,7.5,3.4,7.5,7.5s-3.4,7.5-7.5,7.5h-35.1    c-1.1,0-2,0.9-2,2v27.6h107.8V73c0-1.1-0.9-2-2-2h-35.1c-4.1,0-7.5-3.4-7.5-7.5s3.4-7.5,7.5-7.5h35.1c9.4,0,17,7.6,17,17v35.1    C324.9,112.2,321.5,115.6,317.4,115.6z"/>
</g>
<g>
<g>
<g>
<path d="M337,288.2H175c-4.1,0-7.5-3.4-7.5-7.5s3.4-7.5,7.5-7.5h162c4.1,0,7.5,3.4,7.5,7.5S341.1,288.2,337,288.2z"/>
</g>
<g>
<path d="M337,333.9H175c-4.1,0-7.5-3.4-7.5-7.5s3.4-7.5,7.5-7.5h162c4.1,0,7.5,3.4,7.5,7.5S341.1,333.9,337,333.9z"/>
</g>
<g>
<path d="M337,379.1H175c-4.1,0-7.5-3.4-7.5-7.5s3.4-7.5,7.5-7.5h162c4.1,0,7.5,3.4,7.5,7.5S341.1,379.1,337,379.1z"/>
</g>
</g>
<g>
<g>
<path d="M263.7,234h-15.5c-5.1,0-9.3-4.2-9.3-9.3v-8.8h-8.9c-5.1,0-9.3-4.2-9.3-9.3V191c0-5.1,4.2-9.3,9.3-9.3h8.9v-8.8      c0-5.1,4.2-9.3,9.3-9.3h15.5c5.1,0,9.3,4.2,9.3,9.3v8.8h8.9c5.1,0,9.3,4.2,9.3,9.3v15.5c0,5.1-4.2,9.3-9.3,9.3H273v8.8      C273,229.8,268.9,234,263.7,234z M249,224H263v-8.9c0-5.1,4.2-9.3,9.3-9.3h8.8v-14.1h-8.8c-5.1,0-9.3-4.2-9.3-9.3v-8.9H249v8.9      c0,5.1-4.2,9.3-9.3,9.3h-8.8v14.1h8.8c5.1,0,9.3,4.2,9.3,9.3V224z"/>
</g>
</g>
</g>
<g>
<path d="M351,439.5H161c-16.9,0-30.6-13.7-30.6-30.6V131.2c0-16.9,13.7-30.6,30.6-30.6h190c16.9,0,30.6,13.7,30.6,30.6v277.6    C381.6,425.8,367.9,439.5,351,439.5z M161,115.6c-8.6,0-15.6,7-15.6,15.6v277.6c0,8.6,7,15.6,15.6,15.6h190    c8.6,0,15.6-7,15.6-15.6V131.2c0-8.6-7-15.6-15.6-15.6H161z"/>
</g>
<g>
<path d="M376.8,469.8H359c-4.1,0-7.5-3.4-7.5-7.5s3.4-7.5,7.5-7.5h17.8c8.6,0,15.6-7,15.6-15.6V100.9c0-8.6-7-15.6-15.6-15.6    h-58.4c-4.1,0-7.5-3.4-7.5-7.5s3.4-7.5,7.5-7.5h58.4c16.9,0,30.6,13.7,30.6,30.6v338.2C407.4,456,393.7,469.8,376.8,469.8z"/>
</g>
<g>
<path d="M335.5,469.8H135.2c-16.9,0-30.6-13.7-30.6-30.6V100.9c0-16.9,13.7-30.6,30.6-30.6h58.4c4.1,0,7.5,3.4,7.5,7.5    s-3.4,7.5-7.5,7.5h-58.4c-8.6,0-15.6,7-15.6,15.6v338.2c0,8.6,7,15.6,15.6,15.6h200.3c4.1,0,7.5,3.4,7.5,7.5    S339.6,469.8,335.5,469.8z"/>
</g>
</g>
</svg>