<?xml version="1.0" ?><!-- Uploaded to: SVG Repo, www.svgrepo.com, Generator: SVG Repo Mixer Tools -->
<svg width="800px" height="800px" viewBox="0 0 100 100" data-name="Layer 1" id="Layer_1" xmlns="http://www.w3.org/2000/svg"><defs><style>.cls-1{fill:none;stroke:#4F78AB;stroke-miterlimit:10;stroke-width:2px;}</style></defs><path class="cls-1" d="M45.08,20.25h4.5a2.89,2.89,0,0,1,2.89,2.9v12"/><path class="cls-1" d="M36.5,20.26a3.43,3.43,0,0,0,6.3,1.86,3.29,3.29,0,0,0,.56-1.86,3.35,3.35,0,0,0-.56-1.87,3.43,3.43,0,0,0-6.3,1.87Z"/><path class="cls-1" d="M86.15,47.8A8.14,8.14,0,0,1,80,55.66V51.38a4,4,0,0,1-2,.53,4.11,4.11,0,0,1-2-.52v4.27a8.12,8.12,0,1,1,8.81-12.29A8,8,0,0,1,86.15,47.8Z"/><path class="cls-1" d="M82.15,47.8A3.94,3.94,0,0,1,81.48,50,4.17,4.17,0,0,1,78,51.91a4.12,4.12,0,1,1,3.45-6.36A4,4,0,0,1,82.15,47.8Z"/><path class="cls-1" d="M43.36,20.26a3.29,3.29,0,0,1-.56,1.86H44a1.31,1.31,0,0,0,1.31-1.3V19.69A1.31,1.31,0,0,0,44,18.39H42.8A3.35,3.35,0,0,1,43.36,20.26Z"/><path class="cls-1" d="M23.25,20.25h-4.5a2.9,2.9,0,0,0-2.9,2.9v12"/><path class="cls-1" d="M31.82,20.26a3.43,3.43,0,0,1-6.3,1.86A3.29,3.29,0,0,1,25,20.26a3.35,3.35,0,0,1,.56-1.87,3.43,3.43,0,0,1,6.3,1.87Z"/><path class="cls-1" d="M25,20.26a3.29,3.29,0,0,0,.56,1.86H24.3A1.31,1.31,0,0,1,23,20.82V19.69a1.31,1.31,0,0,1,1.31-1.3h1.22A3.35,3.35,0,0,0,25,20.26Z"/><path class="cls-1" d="M80,51.38v7.85a23.94,23.94,0,1,1-47.87,0V57.85a20.33,20.33,0,0,1-18.31-20.2v-.53a2,2,0,0,1,4,0v.53a16.31,16.31,0,0,0,32.62,0v-.53a2,2,0,0,1,4,0v.53a20.33,20.33,0,0,1-18.31,20.2v1.38a19.94,19.94,0,1,0,39.87,0V51.39a4.11,4.11,0,0,0,2,.52A4,4,0,0,0,80,51.38Z"/></svg>