<?xml version="1.0" ?><!-- Uploaded to: SVG Repo, www.svgrepo.com, Generator: SVG Repo Mixer Tools -->
<svg width="800px" height="800px" viewBox="0 0 100 100" data-name="Layer 1" id="Layer_1" xmlns="http://www.w3.org/2000/svg"><defs><style>.cls-1{fill:none;stroke:#4F78AB;stroke-linecap:round;stroke-linejoin:round;stroke-width:2px;}</style></defs><circle class="cls-1" cx="50" cy="56.49" r="12.01"/><path class="cls-1" d="M58.43,55v3A1.07,1.07,0,0,1,57.36,59h-4.8v4.81a1.06,1.06,0,0,1-1.07,1.06h-3a1.06,1.06,0,0,1-1.07-1.06V59h-4.8A1.07,1.07,0,0,1,41.57,58V55a1.07,1.07,0,0,1,1.07-1.07h4.8v-4.8a1.06,1.06,0,0,1,1.07-1.07h3a1.06,1.06,0,0,1,1.07,1.07v4.8h4.8A1.07,1.07,0,0,1,58.43,55Z"/><rect class="cls-1" height="48.31" rx="6.76" width="66.86" x="16.57" y="32.33"/><rect class="cls-1" height="56.51" rx="1.59" transform="translate(106.49 6.49) rotate(90)" width="37.97" x="31.02" y="28.23"/><path class="cls-1" d="M66.24,24.76v7.57H62.1v-7.1a1.72,1.72,0,0,0-1.73-1.73H39.63a1.72,1.72,0,0,0-1.73,1.73v7.1H33.76V24.76a5.4,5.4,0,0,1,5.4-5.4H60.84A5.4,5.4,0,0,1,66.24,24.76Z"/><path class="cls-1" d="M62.1,25.23v7.1H37.9v-7.1a1.72,1.72,0,0,1,1.73-1.73H60.37A1.72,1.72,0,0,1,62.1,25.23Z"/></svg>