<?xml version="1.0" ?><!-- Uploaded to: SVG Repo, www.svgrepo.com, Generator: SVG Repo Mixer Tools -->
<svg width="800px" height="800px" viewBox="0 0 100 100" data-name="Layer 1" id="Layer_1" xmlns="http://www.w3.org/2000/svg"><defs><style>.cls-1,.cls-2{fill:none;stroke:#000000;stroke-linejoin:round;stroke-width:2px;}.cls-2{stroke-linecap:round;}</style></defs><path class="cls-1" d="M87.52,33.49V68.63a5,5,0,0,1-5,5H80.91a6.14,6.14,0,1,0-12.28,0H42.37a6.14,6.14,0,1,0-12.28,0H17.21a4.73,4.73,0,0,1-4.73-4.73V56a4.74,4.74,0,0,1,4.73-4.72h4.08l2.24-17.19A6.5,6.5,0,0,1,30,28.45H82.48A5,5,0,0,1,87.52,33.49Z"/><path class="cls-1" d="M40.28,34.15V50.09a1,1,0,0,1-1,1H27.19a1,1,0,0,1-1-1.1l2-15.24A1.77,1.77,0,0,1,30,33.18h9.34A1,1,0,0,1,40.28,34.15Z"/><path class="cls-1" d="M12.48,56h6.62a2.69,2.69,0,0,1,2.69,2.69v0a2.69,2.69,0,0,1-2.69,2.69H12.48a0,0,0,0,1,0,0V56a0,0,0,0,1,0,0Z"/><line class="cls-2" x1="16.79" x2="16.79" y1="61.41" y2="56.03"/><path class="cls-2" d="M42.37,73.66a6.14,6.14,0,1,1-6.14-6.15A6.15,6.15,0,0,1,42.37,73.66Z"/><path class="cls-2" d="M74.77,67.51a6.15,6.15,0,1,0,6.14,6.15A6.15,6.15,0,0,0,74.77,67.51Z"/><circle class="cls-2" cx="59.99" cy="51.06" r="13.3"/><path class="cls-2" d="M69.31,49.41v3.3a1.18,1.18,0,0,1-1.18,1.18H62.81v5.32a1.18,1.18,0,0,1-1.18,1.18H58.34a1.19,1.19,0,0,1-1.19-1.18V53.89H51.83a1.18,1.18,0,0,1-1.18-1.18v-3.3a1.18,1.18,0,0,1,1.18-1.18h5.32V42.91a1.18,1.18,0,0,1,1.19-1.18h3.29a1.18,1.18,0,0,1,1.18,1.18v5.32h5.32A1.18,1.18,0,0,1,69.31,49.41Z"/><rect class="cls-1" height="1.52" width="13.64" x="50" y="26.94"/><path class="cls-1" d="M50.19,20.19H62.92A2.85,2.85,0,0,1,65.77,23v2.88a1,1,0,0,1-1,1H48.35a1,1,0,0,1-1-1V23A2.85,2.85,0,0,1,50.19,20.19Z"/><line class="cls-2" x1="56.55" x2="56.55" y1="20.19" y2="26.94"/></svg>