<svg width="34" height="34" viewBox="0 0 34 34" fill="none" xmlns="http://www.w3.org/2000/svg">
<path d="M18.9003 29.8467C17.8229 30.0936 16.721 30.2179 15.6156 30.2173M15.6156 30.2173C7.54327 30.2173 1 23.6765 1 15.6086M15.6156 30.2173C11.5797 30.2173 8.30779 23.6765 8.30779 15.6086C8.30779 7.5408 11.5797 1 15.6156 1M1 15.6086C1 7.5408 7.54391 1 15.6156 1M1 15.6086H30.2312C30.2312 7.5408 23.6872 1 15.6156 1M15.6156 1C19.6514 1 22.9234 7.54016 22.9234 15.6086M14.908 22.9181C10.522 22.9821 6.64812 23.6259 4.11124 24.5987M4.11124 6.61856C6.78643 7.6432 10.9394 8.30432 15.6156 8.30432C20.2917 8.30432 24.4434 7.6432 27.1199 6.61856M25.0114 33L31.9869 25.5702C32.7374 24.6428 33.0937 23.4578 32.9789 22.2704C32.8641 21.083 32.2875 19.9882 31.3731 19.2215C30.4588 18.4548 29.2798 18.0776 28.09 18.1711C26.9002 18.2646 25.7947 18.8212 25.0114 19.7213C24.6097 19.261 24.1197 18.8861 23.5703 18.6188C23.0209 18.3515 22.4234 18.1972 21.8133 18.1651C21.2031 18.133 20.5927 18.2237 20.0183 18.4319C19.4438 18.6401 18.9171 18.9615 18.4693 19.377C18.0216 19.7926 17.6618 20.2938 17.4116 20.8509C17.1613 21.4081 17.0255 22.0098 17.0123 22.6204C16.9991 23.2309 17.1088 23.838 17.3348 24.4054C17.5608 24.9728 17.8985 25.489 18.3279 25.9235L25.0114 33Z" stroke="#314B6B" stroke-width="1.5" stroke-linecap="round" stroke-linejoin="round"/>
</svg>
