<svg width="42" height="42" viewBox="0 0 42 42" fill="none" xmlns="http://www.w3.org/2000/svg">
<path d="M23.3754 37.0701C22.0286 37.3787 20.6512 37.5341 19.2695 37.5333M19.2695 37.5333C9.17908 37.5333 1 29.3573 1 19.2725M19.2695 37.5333C14.2247 37.5333 10.1347 29.3573 10.1347 19.2725C10.1347 9.18772 14.2247 1.01172 19.2695 1.01172M1 19.2725C1 9.18772 9.17988 1.01172 19.2695 1.01172M1 19.2725H37.5389C37.5389 9.18772 29.3591 1.01172 19.2695 1.01172M19.2695 1.01172C24.3143 1.01172 28.4042 9.18692 28.4042 19.2725M18.3851 28.4093C12.9025 28.4893 8.06015 29.2941 4.88905 30.5101M4.88905 8.03492C8.23303 9.31572 13.4243 10.1421 19.2695 10.1421C25.1146 10.1421 30.3043 9.31572 33.6499 8.03492M31.0142 41.0117L39.7336 31.7245C40.6718 30.5652 41.1171 29.084 40.9736 27.5997C40.8301 26.1155 40.1093 24.7469 38.9664 23.7886C37.8235 22.8302 36.3498 22.3587 34.8625 22.4756C33.3752 22.5924 31.9933 23.2883 31.0142 24.4133C30.5122 23.838 29.8996 23.3694 29.2129 23.0352C28.5262 22.7011 27.7793 22.5082 27.0166 22.4681C26.2539 22.428 25.4909 22.5414 24.7728 22.8016C24.0548 23.0618 23.3964 23.4636 22.8367 23.983C22.2769 24.5024 21.8273 25.1289 21.5144 25.8254C21.2016 26.5218 21.0319 27.2739 21.0154 28.0372C20.9989 28.8004 21.136 29.5592 21.4185 30.2684C21.701 30.9777 22.1231 31.623 22.6599 32.1661L31.0142 41.0117Z" stroke="#4F78AB" stroke-width="1.5" stroke-linecap="round" stroke-linejoin="round"/>
</svg>
