<svg width="80" height="80" viewBox="0 0 80 80" fill="none" xmlns="http://www.w3.org/2000/svg">
<path d="M68.3476 63.569L78.9084 77.5946C79.31 78.2137 78.3025 79 77.5991 79C47.4606 79 32.5631 79 2.42464 79C1.72821 79 0.639444 78.1719 1.11766 77.5946L11.6785 63.569M12.9994 16H66.9802C68.907 16 70.4833 17.6954 70.4833 19.7644V59.5669C70.4833 61.6385 68.907 63.3312 66.9802 63.3312H12.9994C11.0726 63.3312 9.49633 61.6358 9.49633 59.5669V19.7644C9.49633 17.6928 11.0726 16 12.9994 16ZM14.7498 22.0554H65.2508V57.0355H14.7498V22.0554Z" stroke="#4F78AB" stroke-width="1.5" stroke-linecap="round" stroke-linejoin="round"/>
<path d="M43 14.3915V5.21927C42.9963 4.10129 42.5081 3.03005 41.642 2.23951C40.7759 1.44897 39.6022 1.00336 38.3773 1H5.65603C3.02345 1.0549 1 2.03336 1 5.19384C1 8.35432 1 7.49325 1 7.49325C1 29.8924 1 49.029 1 55.3209C1 57.4446 1.95868 59 5.5 59H9" stroke="#4F78AB" stroke-width="1.5" stroke-linecap="round" stroke-linejoin="round"/>
<path d="M1.21875 50.7065H9" stroke="#4F78AB" stroke-width="1.5" stroke-linecap="round" stroke-linejoin="round"/>
<path d="M1 9.67578H42.1796" stroke="#4F78AB" stroke-width="1.5" stroke-linecap="round" stroke-linejoin="round"/>
<path d="M18.3574 5.19202H24.0597" stroke="#4F78AB" stroke-width="1.5" stroke-linecap="round" stroke-linejoin="round"/>
</svg>
