<svg width="37" height="42" viewBox="0 0 37 42" fill="none" xmlns="http://www.w3.org/2000/svg">
<path d="M11.5 41.0117H3.625C2.92881 41.0117 2.26113 40.7369 1.76884 40.2476C1.27656 39.7584 1 39.0949 1 38.403V3.62041C1 2.92855 1.27656 2.26501 1.76884 1.77579C2.26113 1.28656 2.92881 1.01172 3.625 1.01172H19.375C20.0712 1.01172 20.7389 1.28656 21.2312 1.77579C21.7234 2.26501 22 2.92855 22 3.62041V23.6204M36 27.0987H15M36 27.0987V41.0117H15V34.0552V27.0987M36 27.0987L25.5 34.9248L15 27.0987M10.5 35.2291C10.2404 35.2291 9.98665 35.3056 9.77081 35.4489C9.55498 35.5923 9.38675 35.796 9.28741 36.0343C9.18807 36.2726 9.16208 36.5349 9.21272 36.7879C9.26336 37.0409 9.38837 37.2734 9.57192 37.4558C9.75548 37.6382 9.98934 37.7624 10.2439 37.8127C10.4985 37.8631 10.7624 37.8372 11.0023 37.7385C11.2421 37.6398 11.4471 37.4726 11.5913 37.2581C11.7355 37.0436 11.8125 36.7914 11.8125 36.5335C11.8125 36.1875 11.6742 35.8558 11.4281 35.6111C11.1819 35.3665 10.8481 35.2291 10.5 35.2291Z" stroke="#4F78AB" stroke-width="1.5" stroke-linecap="round" stroke-linejoin="round"/>
</svg>
