<svg width="34" height="34" viewBox="0 0 34 34" fill="none" xmlns="http://www.w3.org/2000/svg">
<path d="M26.9267 15.0928C27.1025 14.0031 27.0255 12.8889 26.7013 11.832C26.3318 10.6102 25.6543 9.49785 24.7306 8.59625C23.7938 7.69315 22.6391 7.072 21.4053 6.8816C20.6663 6.76507 19.9099 6.81201 19.192 7.01894M32.3488 17.67C33.2192 15.076 33.217 12.2792 32.3424 9.68664C31.716 7.80706 30.6668 6.08737 29.2714 4.65297C27.9028 3.22798 26.1929 2.15557 24.2947 1.53164C22.1067 0.830367 19.745 0.833286 17.5588 1.53997M9.82412 11.8861C8.0894 13.53 8.61281 17.2319 11.0888 20.3803C13.5649 23.5287 17.0995 24.9832 19.1803 23.7805M24.8278 30.9595C24.7519 31.0833 24.3503 31.4132 22.8911 32.463C20.0391 34.5137 13.2711 30.638 7.37907 23.1489C1.48699 15.6598 -0.513703 8.3018 2.17704 6.13768C3.62869 4.97135 4.03139 4.7102 4.16385 4.69771M25.4206 29.9284L19.9729 23.0043C19.8229 22.8127 19.757 22.5711 19.7894 22.3323C19.8218 22.0934 19.95 21.8768 20.1459 21.7298L22.6145 19.8871C22.7118 19.8136 22.8231 19.7596 22.9419 19.728C23.0608 19.6965 23.1848 19.6881 23.307 19.7034C23.4292 19.7187 23.547 19.7573 23.6538 19.817C23.7606 19.8768 23.8543 19.9565 23.9294 20.0515L29.3771 26.9757C29.4519 27.0708 29.5067 27.1794 29.5384 27.2951C29.5701 27.4109 29.578 27.5316 29.5617 27.6504C29.5455 27.7692 29.5053 27.8837 29.4436 27.9873C29.3818 28.0909 29.2997 28.1817 29.2019 28.2544L26.7334 30.097C26.5368 30.2427 26.2889 30.3068 26.044 30.2752C25.799 30.2436 25.5769 30.119 25.4259 29.9284H25.4206ZM10.7876 11.318L5.33991 4.3939C5.18996 4.20231 5.12399 3.96068 5.15642 3.72185C5.18884 3.48301 5.31703 3.2664 5.51296 3.11936L7.98152 1.27777C8.17822 1.13172 8.42628 1.06746 8.67149 1.09904C8.91669 1.13063 9.13908 1.25549 9.29003 1.44633L14.7377 8.37047C14.8887 8.56182 14.9556 8.80367 14.9238 9.04299C14.8919 9.28231 14.764 9.49956 14.5679 9.6471L12.0993 11.4897C11.9026 11.6358 11.6546 11.7 11.4094 11.6685C11.1642 11.6369 10.9418 11.512 10.7908 11.3212L10.7876 11.318Z" stroke="#314B6B" stroke-width="1.5" stroke-linecap="round" stroke-linejoin="round"/>
</svg>
