<svg width="57" height="64" viewBox="0 0 57 64" fill="none" xmlns="http://www.w3.org/2000/svg">
<path d="M17.5 63H5.125C4.03098 63 2.98177 62.574 2.20818 61.8157C1.4346 61.0574 1 60.0289 1 58.9565V5.04348C1 3.97108 1.4346 2.94261 2.20818 2.18431C2.98177 1.42601 4.03098 1 5.125 1H29.875C30.969 1 32.0182 1.42601 32.7918 2.18431C33.5654 2.94261 34 3.97108 34 5.04348V36.0435M56 41.4348H23M56 41.4348V63H23V52.2174V41.4348M56 41.4348L39.5 53.5652L23 41.4348M15.9286 54.037C15.5206 54.037 15.1219 54.1555 14.7827 54.3777C14.4435 54.5998 14.1792 54.9156 14.0231 55.285C13.867 55.6544 13.8261 56.0609 13.9057 56.4531C13.9853 56.8453 14.1817 57.2055 14.4702 57.4883C14.7586 57.771 15.1261 57.9636 15.5262 58.0416C15.9263 58.1196 16.341 58.0796 16.7179 57.9265C17.0947 57.7735 17.4168 57.5144 17.6435 57.1819C17.8701 56.8494 17.9911 56.4586 17.9911 56.0587C17.9911 55.5225 17.7738 55.0083 17.387 54.6291C17.0002 54.25 16.4756 54.037 15.9286 54.037Z" stroke="#4F78AB" stroke-width="1.5" stroke-linecap="round" stroke-linejoin="round"/>
</svg>
