<svg width="88" height="80" viewBox="0 0 88 80" fill="none" xmlns="http://www.w3.org/2000/svg">
<path d="M14.503 47.5771L14.6132 49.002L15.9141 48.4102C21.0699 46.0648 26.8739 46.287 31.3641 48.5905C35.8248 50.8788 38.9999 55.2187 39 61.2346C39.0002 68.8283 35.5514 73.2223 31.7553 75.7578C27.8963 78.3352 23.6542 79 22.2367 79C20.2349 79 15.7419 78.8022 11.4149 76.4748C7.14353 74.1773 2.93255 69.7526 1.51311 61.0732C0.796512 56.6914 0.859631 50.6235 1.5212 44.5999C2.18282 38.5758 3.43126 32.7027 5.02925 28.7045L5.04365 28.6684L5.05522 28.6314C7.46712 20.9068 12.2264 13.9399 16.4206 8.87882C18.5125 6.35449 20.4521 4.31833 21.867 2.91482C22.5398 2.24738 23.0934 1.72363 23.4875 1.35912C23.4944 1.36558 23.5014 1.37209 23.5084 1.37863C23.9386 1.78085 24.5363 2.3378 25.2063 2.95675C26.2966 3.96402 27.5864 5.14305 28.6581 6.08664C26.2959 9.45483 23.64 13.6339 21.3498 17.9138C18.8967 22.4983 16.8263 27.2662 16.0194 31.304C15.0218 36.2962 14.6413 40.3466 14.5109 43.1574C14.4457 44.5628 14.443 45.6586 14.457 46.4075C14.464 46.782 14.4751 47.0698 14.4847 47.2663C14.4895 47.3645 14.4939 47.4399 14.4972 47.4919L14.5012 47.5523L14.5024 47.5692L14.5028 47.5743L14.5029 47.576L14.5029 47.5766C14.503 47.5769 14.503 47.5771 15.5 47.5L14.503 47.5771Z" stroke="#4F78AB" stroke-width="2"/>
<path d="M62.503 47.5771L62.6132 49.002L63.9141 48.4102C69.0699 46.0648 74.8739 46.287 79.3641 48.5905C83.8248 50.8788 86.9999 55.2187 87 61.2346C87.0002 68.8283 83.5514 73.2223 79.7553 75.7578C75.8963 78.3352 71.6542 79 70.2367 79C68.2349 79 63.7419 78.8022 59.4149 76.4748C55.1435 74.1773 50.9325 69.7526 49.5131 61.0732C48.7965 56.6914 48.8596 50.6235 49.5212 44.5999C50.1828 38.5758 51.4313 32.7027 53.0292 28.7045L53.0437 28.6684L53.0552 28.6314C55.4671 20.9068 60.2264 13.9399 64.4206 8.87882C66.5125 6.35449 68.4521 4.31833 69.867 2.91482C70.5398 2.24738 71.0934 1.72363 71.4875 1.35912C71.4944 1.36558 71.5014 1.37209 71.5084 1.37863C71.9386 1.78085 72.5363 2.3378 73.2063 2.95675C74.2966 3.96402 75.5864 5.14305 76.6581 6.08664C74.2959 9.45483 71.64 13.6339 69.3498 17.9138C66.8967 22.4983 64.8263 27.2662 64.0194 31.304C63.0218 36.2962 62.6413 40.3466 62.5109 43.1574C62.4457 44.5628 62.443 45.6586 62.457 46.4075C62.464 46.782 62.4751 47.0698 62.4847 47.2663C62.4895 47.3645 62.4939 47.4399 62.4972 47.4919L62.5012 47.5523L62.5024 47.5692L62.5028 47.5743L62.5029 47.576L62.5029 47.5766C62.503 47.5769 62.503 47.5771 63.5 47.5L62.503 47.5771Z" stroke="#4F78AB" stroke-width="2"/>
</svg>
