<svg width="77" height="80" viewBox="0 0 77 80" fill="none" xmlns="http://www.w3.org/2000/svg">
<path d="M44.3039 2.81655C59.002 3.51767 70.3155 16.3578 70.3155 31.2806V34.6268C70.3155 36.4686 70.6967 38.2899 71.4343 39.9729L75.8151 49.991C75.9596 50.3185 76.021 50.6776 75.9936 51.0353C75.9663 51.3931 75.851 51.7382 75.6584 52.0392C75.4658 52.3402 75.2019 52.5875 74.8909 52.7586C74.5799 52.9296 74.2315 53.019 73.8777 53.0186H68.6059C68.6059 53.1939 68.6059 65.9256 68.6059 66.0244C68.6059 68.0959 66.7203 69.4727 64.6776 69.4727H56.6529V78.9984M38.7195 78.9984V69.4695H46.7458C48.7885 69.4695 50.6631 68.0864 50.674 66.0212C50.674 65.9288 50.674 53.1891 50.674 53.0154H55.9505C56.3044 53.0158 56.6527 52.9265 56.9637 52.7554C57.2748 52.5843 57.5386 52.337 57.7312 52.036C57.9239 51.735 58.0391 51.3899 58.0665 51.0321C58.0939 50.6744 58.0325 50.3154 57.888 49.9878L53.5024 39.9793C52.7648 38.2963 52.3837 36.475 52.3836 34.6332V31.2869C52.3836 16.3642 41.0702 3.52404 26.3736 2.82292M21.644 79V69.4695H29.6718C31.7145 69.4695 33.5891 68.0864 33.6001 66.0212C33.6001 65.9288 33.6001 53.1891 33.6001 53.0154H38.8766C39.2304 53.0158 39.5788 52.9265 39.8898 52.7554C40.2008 52.5843 40.4647 52.337 40.6573 52.036C40.8499 51.735 40.9652 51.3899 40.9926 51.0321C41.0199 50.6744 40.9586 50.3154 40.814 49.9878L36.4253 39.9761C35.6877 38.2931 35.3066 36.4718 35.3066 34.63V31.2838C35.3066 16.361 23.9931 3.52086 9.29656 2.81973M2.70802 1C2.37021 1 2.03998 1.10159 1.7591 1.29191C1.47821 1.48224 1.25929 1.75275 1.13002 2.06925C1.00074 2.38575 0.966916 2.73402 1.03282 3.07001C1.09872 3.406 1.2614 3.71463 1.50027 3.95687C1.73914 4.19911 2.04348 4.36407 2.3748 4.43091C2.70613 4.49774 3.04955 4.46344 3.36165 4.33234C3.67375 4.20124 3.94051 3.97924 4.12819 3.69439C4.31587 3.40955 4.41604 3.07467 4.41604 2.73209C4.41604 2.27271 4.23609 1.83215 3.91578 1.50732C3.59546 1.18249 3.16102 1 2.70802 1Z" stroke="#4F78AB" stroke-width="1.5" stroke-linecap="round" stroke-linejoin="round"/>
</svg>
