<svg width="80" height="80" viewBox="0 0 80 80" fill="none" xmlns="http://www.w3.org/2000/svg">
<path d="M64.1461 41.7301H74.8667M64.1461 53.4069H72.9173M64.1461 65.0837H69.9942M17.3685 31.9995H29.1094C29.7486 31.9995 30.3727 31.8061 30.8996 31.445C31.4265 31.0839 31.8315 30.5718 32.0613 29.9764L40.8487 12.9268V0.863281H44.6237C45.4726 0.863221 46.2984 1.13981 46.9755 1.65102C47.6527 2.16223 48.1442 2.88012 48.3754 3.69564L50.4485 13.5999C50.6378 14.3327 50.6434 15.1007 50.4646 15.8361L48.6713 24.8506C48.517 25.4682 48.5058 26.1127 48.6384 26.7353C48.771 27.3579 49.044 27.9421 49.4366 28.4436C49.8292 28.9451 50.331 29.3508 50.9041 29.6297C51.4772 29.9086 52.1064 30.0535 52.744 30.0534H73.5468C75.0483 30.0202 76.5089 30.5426 77.6478 31.5199C78.7867 32.4973 79.5233 33.8606 79.7159 35.3475C79.8577 36.8458 79.4147 38.341 78.4791 39.5211C77.5436 40.7013 76.1878 41.4753 74.6945 41.6818C74.6822 41.6841 74.671 41.6906 74.663 41.7003C74.6549 41.7099 74.6505 41.7221 74.6505 41.7346C74.6505 41.7472 74.6549 41.7593 74.663 41.769C74.671 41.7786 74.6822 41.7852 74.6945 41.7874C76.1878 41.9939 77.5436 42.7679 78.4791 43.9481C79.4147 45.1282 79.8577 46.6234 79.7159 48.1218C79.5221 49.6077 78.785 50.9697 77.6462 51.9459C76.5074 52.9222 75.0474 53.4438 73.5468 53.4105H70.968C72.519 53.4105 74.0065 54.0256 75.1032 55.1205C76.1999 56.2154 76.8161 57.7004 76.8161 59.2489C76.8161 59.3372 76.8161 59.4255 76.8161 59.5138C76.6854 61.0595 75.9686 62.497 74.812 63.5329C73.6555 64.5687 72.1465 65.1247 70.5932 65.0872H67.1912C67.1779 65.0858 67.1645 65.0897 67.1541 65.0981C67.1437 65.1065 67.137 65.1187 67.1356 65.132C67.1342 65.1453 67.1381 65.1586 67.1465 65.169C67.1549 65.1794 67.1671 65.1861 67.1804 65.1875C68.6725 65.4705 69.9961 66.3213 70.8715 67.5604C71.7469 68.7995 72.1056 70.3298 71.8718 71.828C71.5994 73.2426 70.8332 74.515 69.7095 75.4188C68.5858 76.3226 67.1775 76.7992 65.735 76.764H55.3694L49.4801 76.6816C43.0352 76.5974 36.6656 75.2867 30.7127 72.8198L26.145 70.9256H26.1235H19.3179M8.88435 76.7586H19.3197V31.9995H8.88435M2.8372 74.6514C3.23871 74.6514 3.63121 74.7702 3.96505 74.9929C4.29889 75.2156 4.55909 75.5321 4.71274 75.9025C4.86639 76.2728 4.90659 76.6803 4.82826 77.0735C4.74993 77.4666 4.55659 77.8277 4.27268 78.1111C3.98877 78.3946 3.62705 78.5876 3.23325 78.6658C2.83946 78.744 2.43127 78.7039 2.06033 78.5505C1.68938 78.3971 1.37233 78.1373 1.14926 77.804C0.926193 77.4707 0.807129 77.0789 0.807129 76.6781C0.807129 76.4119 0.85964 76.1484 0.96166 75.9025C1.06368 75.6566 1.21321 75.4332 1.40172 75.245C1.59023 75.0568 1.81403 74.9075 2.06033 74.8056C2.30663 74.7038 2.57061 74.6514 2.8372 74.6514ZM0.807129 32.0819C0.807129 32.4827 0.926193 32.8746 1.14926 33.2078C1.37233 33.5411 1.68938 33.8009 2.06033 33.9543C2.43127 34.1077 2.83946 34.1478 3.23325 34.0696C3.62705 33.9914 3.98877 33.7984 4.27268 33.515C4.55659 33.2315 4.74993 32.8704 4.82826 32.4773C4.90659 32.0841 4.86639 31.6766 4.71274 31.3063C4.55909 30.936 4.29889 30.6194 3.96505 30.3967C3.63121 30.174 3.23871 30.0552 2.8372 30.0552C2.29879 30.0552 1.78244 30.2687 1.40172 30.6488C1.02101 31.0289 0.807129 31.5444 0.807129 32.0819Z" stroke="#4F78AB" stroke-width="1.5" stroke-miterlimit="10" stroke-linecap="round"/>
</svg>
