<svg width="80" height="80" viewBox="0 0 80 80" fill="none" xmlns="http://www.w3.org/2000/svg">
<path d="M32.2836 50.3233L44.801 40.254L53.2 42.8663L66.208 21.0598L58.0633 22.9909M66.8269 21.0643L68.0872 29.5756M15.785 17.2652V6.70118H79V57.0586L26.8487 57.2114M47.3936 57.2114V74.4364M47.3936 6.48761V1M47.4926 66.1161L61.6709 79M47.2946 66.1161L33.1163 79M18.6049 58.4164V75.4592C18.6049 80.6456 10.1204 79.6722 10.1204 75.4592L10.5165 44.3388L7.28246 54.1181C5.01843 60.071 0.101031 56.1975 1.14303 53.4863L5.46629 39.3233C7.04166 33.3276 12.938 36.5402 15.7579 36.6751C16.7605 36.9022 17.7862 37.0108 18.8142 36.9988C26.1599 37.0325 26.2882 33.4266 34.5363 28.8022C38.9541 26.3293 42.6652 32.1744 37.7816 35.0812L26.6572 43.7139L27.1074 75.4503C27.1726 80.6321 18.6229 79.6879 18.6229 75.4503L18.6049 58.4164ZM18.8929 17.0312C20.372 17.0312 21.8179 17.4693 23.0478 18.2902C24.2776 19.111 25.2361 20.2778 25.8022 21.6428C26.3682 23.0078 26.5163 24.5099 26.2277 25.959C25.9392 27.4081 25.2269 28.7392 24.181 29.784C23.1351 30.8288 21.8026 31.5403 20.3519 31.8285C18.9012 32.1168 17.3975 31.9688 16.031 31.4034C14.6645 30.838 13.4965 29.8805 12.6748 28.652C11.853 27.4235 11.4144 25.9791 11.4144 24.5016C11.4153 23.52 11.6099 22.5482 11.9869 21.6418C12.364 20.7353 12.9162 19.912 13.612 19.2188C14.3078 18.5257 15.1335 17.9763 16.0419 17.6021C16.9504 17.2279 17.9238 17.0362 18.9064 17.0379L18.8929 17.0312Z" stroke="#4F78AB" stroke-width="1.5" stroke-linecap="round" stroke-linejoin="round"/>
</svg>
