<svg width="880" height="312" viewBox="0 0 880 312" fill="none" xmlns="http://www.w3.org/2000/svg">
<path opacity="0.1" d="M879.851 -182.786C736.137 -243.999 568.964 -259.715 405.189 -258.05C351.742 -257.499 296.354 -254.785 248.332 -233.671C213.686 -218.451 185.397 -194.701 157.725 -171.339C115.595 -135.814 71.8145 -97.9686 55.273 -50.274C44.7491 -19.9308 46.2289 11.9679 48.6775 43.095C51.4725 78.7399 56.1402 116.065 79.973 144.931C121.885 195.729 206.063 203.812 279.945 212.541C427.032 229.88 569.83 266.767 701.591 321.555C755.38 343.917 807.847 369.371 866.006 382.944C924.164 396.516 990.331 396.85 1043.9 370.593C1091.66 347.173 1123.74 305.293 1141 261.5C1215 73.8868 1071.61 -101.123 879.851 -182.786Z" fill="#5189CD"/>
<path opacity="0.5" d="M537.033 -198.351C416.167 -205.097 296.019 -182.144 177.282 -159.448C119.002 -148.263 59.2922 -136.543 8.66791 -105.575C-22.6857 -86.4189 -49.3867 -60.5293 -69.5008 -29.781C-89.615 0.9673 -102.639 35.8045 -107.628 72.2068C-112.618 108.609 -109.449 145.665 -98.3515 180.691C-87.2534 215.717 -68.5041 247.836 -43.4616 274.72C-9.09874 311.634 35.6954 337.177 81.5608 358.164C192.945 409.141 328.783 434.514 434.551 372.802C508.523 329.685 555.638 250.954 627.014 203.762C678.345 169.777 740.974 152.874 786.054 110.947C807.126 90.9988 823.301 66.4494 833.317 39.216C843.333 11.9825 846.918 -17.1975 843.792 -46.0451C838.211 -93.9152 803.063 -168.472 752.905 -185.573C725.16 -195.019 682.176 -186.02 651.981 -188.167C613.617 -190.86 575.474 -196.197 537.033 -198.351Z" fill="white"/>
</svg>
