<svg width="880" height="312" viewBox="0 0 880 312" fill="none" xmlns="http://www.w3.org/2000/svg">
<path opacity="0.3" d="M346.562 -296.779C300.449 -295.428 256.716 -286.352 217.627 -266.279C121.905 -217.108 64.3605 -117.438 41.7593 -14.986C13.2943 113.953 6.33742 353.017 143.453 421.337C185.388 442.231 235.965 435.892 275.434 412.404C352.785 366.38 378.665 270.347 461.96 226.672C555.666 177.541 670.978 180.437 766.347 223.251C837.163 255.029 914.24 280.324 982.556 228.405C1040.15 184.622 1060.22 105.481 1035.8 38.2382C991.215 -84.5377 869.317 -156.056 754.403 -202.223C631.042 -251.781 480.297 -300.701 346.562 -296.779ZM341.593 328.212C343.261 325.931 345.099 323.719 346.773 321.496L341.593 328.212Z" fill="#101C2D"/>
<path opacity="0.15" d="M666.512 332.368C614.046 315.565 559.992 271.024 509.376 248.034C433.423 213.538 345.24 212.351 264.318 226.842C268.002 226.462 271.679 226.017 275.348 225.507C219.712 233.161 165.385 247.88 113.84 270.322C71.1574 288.911 32.8337 318.67 -13.9526 326.164C-92.8024 338.794 -165.216 293.585 -147.226 206.638C-126.977 108.784 -32.2664 33.2342 41.359 -26.4658C226.746 -176.76 504.766 -326.21 708.307 -116.193C794.413 -27.3447 874.185 154.13 801.721 272.593C760.483 340.01 714.158 347.629 666.512 332.368ZM524.662 255.26C520.9 253.679 517.15 252.058 513.388 250.488L524.662 255.26Z" fill="#5189CD"/>
</svg>
