<svg width="652" height="352" viewBox="0 0 652 352" fill="none" xmlns="http://www.w3.org/2000/svg">
<path opacity="0.3" d="M278.976 -73.8584C249.439 -72.9934 221.425 -67.1828 196.387 -54.3316C135.073 -22.8516 98.2123 40.959 83.7351 106.551C65.5019 189.1 61.0457 342.153 148.875 385.893C175.736 399.27 208.133 395.211 233.415 380.174C282.962 350.708 299.54 289.226 352.894 261.265C412.918 229.81 486.78 231.664 547.869 259.075C593.229 279.419 642.601 295.614 686.361 262.374C723.251 234.343 736.109 183.676 720.465 140.626C691.908 62.0224 613.826 16.2348 540.218 -13.3218C461.199 -45.05 364.64 -76.3695 278.976 -73.8584ZM275.793 326.272C276.861 324.812 278.039 323.396 279.111 321.973L275.793 326.272Z" fill="#101C2D"/>
<path opacity="0.15" d="M483.401 328.752C449.834 317.991 415.25 289.466 382.866 274.743C334.272 252.651 277.852 251.89 226.079 261.171C228.436 260.927 230.788 260.642 233.136 260.316C197.54 265.217 162.782 274.644 129.804 289.017C102.496 300.922 77.9763 319.98 48.0426 324.779C-2.40522 332.868 -48.7349 303.915 -37.2253 248.232C-24.2702 185.563 36.3255 137.179 83.4307 98.945C202.04 2.692 379.917 -93.02 510.142 41.4812C565.232 98.3821 616.27 214.604 569.907 290.471C543.523 333.647 513.885 338.527 483.401 328.752ZM392.646 279.37C390.239 278.358 387.84 277.32 385.433 276.315L392.646 279.37Z" fill="#5189CD"/>
</svg>
