<svg width="896" height="952" viewBox="0 0 896 952" fill="none" xmlns="http://www.w3.org/2000/svg">
<path opacity="0.15" d="M71.7867 -72.2792C127.305 -27.4488 199.89 -2.89594 267.912 11.1558C406.716 39.8167 527.294 82.4258 597.089 216.201C673.417 362.466 679.823 537.744 773.02 676.271C893.78 855.792 1103.17 992.17 1322.77 987.903C1350.27 987.413 1377.67 984.482 1404.66 979.145C1550.19 935.453 1576.65 783.391 1512.07 687.282C1555.15 613.759 1546.04 526.295 1548.45 439.509C1549.12 371.837 1544.12 212.61 1534.36 108.42C1553.27 102.258 1569.09 94.6784 1580.67 84.8859C1711.19 -25.2753 1639.06 -172.744 1595.19 -205.879C1538.66 -255.971 1503.15 -251.163 1454.89 -262.707C1307.92 -292.443 1161.91 -320.705 1013.36 -340.449C688.727 -388.265 484.328 -366.165 252.682 -393.87L248.119 -394.563C229.776 -398.182 211.42 -401.765 193.05 -405.311C144.198 -411.329 94.7866 -401.489 53.7272 -372.207C-52.8572 -296.168 -20.5045 -146.805 71.7867 -72.2792ZM1164.87 190.27L1165.46 189.689C1165.57 190.958 1165.67 192.226 1165.77 193.495C1165.47 192.412 1165.17 191.337 1164.87 190.27Z" fill="#101C2D"/>
<path opacity="0.1" d="M-103.993 505.937C-102.282 738.527 -8.25195 963.762 125.832 1149.76C240.817 1309.26 433.04 1524.06 634.801 1558.99C864.009 1598.68 1014.65 1335.22 890.473 1149.46C1040.62 1062.28 1070.53 878.847 971.299 748.489C929.345 693.128 863.104 667.698 804.59 632.785C726.811 588.845 650.423 544.271 575.758 495.952C360.24 359.509 309.554 259.194 214.078 248.062C48.5615 207.934 -105.175 344.855 -103.993 505.937Z" fill="#D3DFF0"/>
</svg>
