<svg width="1920" height="624" viewBox="0 0 1920 624" fill="none" xmlns="http://www.w3.org/2000/svg">
<path opacity="0.7" d="M730.142 878.778C832.616 840.196 935.453 746.493 1033.63 695.839C1180.96 619.833 1355.91 608.593 1518.03 629.152C1510.68 628.769 1503.33 628.257 1496 627.617C1607.23 637.175 1716.57 660.866 1821.16 700.139C1907.77 732.67 1986.85 787.773 2080.49 797.907C2238.31 814.987 2377.53 718.111 2333.07 547.642C2283.02 355.789 2087.39 215.636 1935.21 104.764C1552.03 -174.354 985.026 -442.462 602.046 -5.81013C440.03 178.916 299.907 546.537 455.691 773.965C544.343 903.391 637.083 913.82 730.142 878.778ZM1004.01 711.697C1011.32 708.185 1018.6 704.596 1025.91 701.106L1004.01 711.697Z" fill="white"/>
<path opacity="0.1" d="M-22.3361 -81.1349C-69.8078 -43.2128 -108.663 0.953116 -133.928 53.0122C-195.787 180.513 -177.508 330.927 -120.244 456.608C-48.1981 614.797 133.614 871.826 331.999 835.174C392.671 823.964 440.894 777.261 463.859 721.307C508.87 611.658 460.137 490.136 513.262 378.254C573.031 252.389 696.704 164.162 830.966 133.719C930.649 111.099 1031.8 76.7027 1062.63 -31.9966C1088.62 -123.647 1047.13 -222.801 968.226 -274.216C824.164 -368.102 639.267 -346.86 481.781 -304.474C312.717 -258.969 115.335 -191.118 -22.3361 -81.1349ZM466.892 580.36C466.843 576.641 467.029 572.858 467.032 569.194L466.892 580.36Z" fill="#A6C1E0"/>
</svg>
