<svg width="1920" height="528" viewBox="0 0 1920 528" fill="none" xmlns="http://www.w3.org/2000/svg">
<mask id="mask0_1472_2469" style="mask-type:alpha" maskUnits="userSpaceOnUse" x="0" y="0" width="1920" height="528">
<rect width="1920" height="528" fill="#101C2D"/>
</mask>
<g mask="url(#mask0_1472_2469)">
<path opacity="0.15" d="M1502.51 -225.19C1679.46 -212.833 1850.23 -157.465 2018.88 -102.47C2101.61 -75.5209 2186.37 -47.5126 2254.37 6.8493C2296.45 40.4839 2330.54 83.057 2354.17 131.488C2377.79 179.918 2390.37 232.996 2390.98 286.878C2391.59 340.76 2380.23 394.1 2357.71 443.038C2335.19 491.975 2302.07 535.287 2260.76 569.837C2203.92 617.304 2134.19 646.292 2063.63 668.435C1892.27 722.252 1690 734.295 1547.25 625.121C1447.49 548.81 1393.35 425.675 1297.95 343.811C1229.48 284.914 1141.45 248.87 1083.5 179.53C1056.45 146.614 1037.38 107.887 1027.77 66.3774C1018.16 24.8675 1018.28 -18.3002 1028.11 -59.7495C1044.98 -128.426 1109.73 -230.539 1185.8 -246.224C1227.9 -254.893 1288.79 -233.926 1333.12 -231.531C1389.66 -228.337 1446.18 -229.138 1502.51 -225.19Z" fill="#5189CD"/>
<path opacity="0.1" d="M282.929 -102.261C124.854 -139.924 -46.2276 -123.317 -209.964 -88.497C-263.201 -77.1525 -318.355 -62.9582 -361.505 -30.369C-392.714 -6.82055 -415.584 24.7444 -437.938 55.7331C-472.003 102.826 -507.106 152.943 -512.7 208.178C-516.252 243.328 -507.453 277.767 -497.815 311.135C-486.821 349.368 -473.604 388.99 -443.009 415.662C-389.296 462.599 -303.15 454.352 -227.127 448.934C-78.0953 437.998 72.5099 449.335 220.435 482.625C279.443 496.018 337.903 513.267 399.281 516.3C460.659 519.333 527.055 506.39 574.654 467.002C617.101 431.885 639.724 379.797 646.824 328.685C677.74 109.517 493.847 -52.0053 282.929 -102.261Z" fill="#4F78AB"/>
</g>
</svg>
