<svg width="1920" height="1200" viewBox="0 0 1920 1200" fill="none" xmlns="http://www.w3.org/2000/svg">
<path opacity="0.15" d="M1673.98 1341.58C1905.68 1325.4 2129.29 1252.9 2350.13 1180.89C2458.47 1145.6 2569.45 1108.93 2658.48 1037.75C2713.59 993.705 2758.23 937.959 2789.16 874.543C2820.1 811.127 2836.57 741.627 2837.37 671.072C2838.17 600.517 2823.29 530.673 2793.8 466.593C2764.31 402.513 2720.95 345.801 2666.86 300.56C2592.42 238.405 2501.12 200.448 2408.73 171.453C2184.35 100.984 1919.49 85.2148 1732.57 228.169C1601.95 328.093 1531.05 489.328 1406.14 596.523C1316.47 673.643 1201.21 720.841 1125.32 811.636C1089.91 854.736 1064.93 905.446 1052.35 959.799C1039.77 1014.15 1039.93 1070.68 1052.8 1124.95C1074.89 1214.88 1159.67 1348.59 1259.29 1369.13C1314.41 1380.48 1394.14 1353.02 1452.18 1349.89C1526.22 1345.7 1600.23 1346.75 1673.98 1341.58Z" fill="#5189CD"/>
<path opacity="0.1" d="M286.626 -191.614C79.6399 -240.932 -144.378 -219.186 -358.777 -173.592C-428.488 -158.737 -500.707 -140.151 -557.209 -97.4783C-598.073 -66.6434 -628.02 -25.3117 -657.291 15.2655C-701.896 76.9303 -747.861 142.554 -755.186 214.88C-759.837 260.906 -748.315 306.002 -735.696 349.694C-721.299 399.756 -703.993 451.639 -663.931 486.564C-593.598 548.023 -480.798 537.225 -381.251 530.131C-186.106 515.811 11.0996 530.656 204.795 574.246C282.062 591.783 358.611 614.369 438.98 618.341C519.35 622.312 606.29 605.365 668.617 553.789C724.197 507.806 753.821 439.601 763.118 372.675C803.6 85.6917 562.807 -125.809 286.626 -191.614Z" fill="#4F78AB"/>
</svg>
