<svg width="1920" height="2372" viewBox="0 0 1920 2372" fill="none" xmlns="http://www.w3.org/2000/svg">
<path opacity="0.8" d="M199.932 1143.96C-106.174 1082.59 -385.91 541.752 -13.4912 376.594C32.5099 358.377 81.7128 349.721 131.141 351.149C180.569 352.577 229.196 364.059 274.078 384.901C444.418 463.055 569.886 660.628 559.689 849.826C552.193 988.842 455.492 1107.18 328.877 1140.37C286.728 1151.41 242.626 1152.64 199.932 1143.96ZM404.641 2372C483.649 2368.1 548.611 2330.36 590.344 2262.11C697.038 2093.9 494.183 1846.89 293.557 1965.76C105.018 2087.25 189.09 2367.45 404.641 2372ZM1548.51 840.506C1732.66 850.678 1936.19 744.856 1902.53 552.709C1873.29 385.753 1692.52 244.872 1524.17 274.438C1331.71 308.345 1206.31 528.974 1301.33 706.779C1346.81 791.884 1444.55 834.708 1548.51 840.506Z" fill="#F4F4F5"/>
<path opacity="0.15" d="M-32.7276 701.725C-373.481 633.407 -684.88 31.3442 -270.308 -152.509C-219.1 -172.788 -164.328 -182.424 -109.305 -180.835C-54.2817 -179.246 -0.151368 -166.463 49.811 -143.262C239.432 -56.2609 379.1 163.677 367.749 374.291C359.405 529.044 251.759 660.772 110.812 697.724C63.893 710.014 14.7985 711.383 -32.7276 701.725ZM249.61 2096C337.561 2091.66 409.876 2049.65 456.332 1973.67C575.103 1786.42 349.287 1511.45 125.952 1643.78C-83.9273 1779.02 9.66177 2090.94 249.61 2096ZM1772.03 1223.59C1977.02 1234.91 2203.59 1117.11 2166.12 903.216C2133.57 717.361 1932.33 560.533 1744.93 593.446C1530.69 631.191 1391.1 876.794 1496.86 1074.73C1547.49 1169.47 1656.3 1217.14 1772.03 1223.59Z" fill="#5189CD"/>
</svg>
