<svg width="1920" height="382" viewBox="0 0 1920 382" fill="none" xmlns="http://www.w3.org/2000/svg">
<path opacity="0.2" d="M1466.95 1196.05C1147.48 1282.54 792.155 1266.57 448.937 1215.15C337.339 1198.38 221.317 1176.35 126.967 1118.08C58.7329 1075.98 6.34655 1017.8 -44.8814 960.677C-122.924 873.872 -203.611 781.388 -224.337 676.413C-237.512 609.608 -225.115 543.023 -210.812 478.407C-194.523 404.377 -173.887 327.487 -115.28 273.73C-12.4091 179.142 166.489 186.961 324.056 190.308C632.993 197.472 941.464 161.954 1240.75 84.756C1360.12 53.7441 1477.72 15.4187 1603.7 3.97462C1729.68 -7.46937 1868.66 11.1364 1973.31 81.9802C2066.63 145.14 2121.93 242.537 2145.07 339.5C2245.29 755.233 1893.23 1080.65 1466.95 1196.05Z" fill="#D3DFF0"/>
</svg>
