<svg width="1583" height="1016" viewBox="0 0 1583 1016" fill="none" xmlns="http://www.w3.org/2000/svg">
<path d="M1399.17 293.18C1370.27 688.981 787.44 771.16 495.703 641.823C286.953 549.227 75.3625 332.877 166.401 88.9332C333.559 -359.482 1435.39 -202.825 1399.17 293.18Z" fill="#fdfefe"/>
<path opacity="0.1" d="M2061.88 -86.3449C2062.51 -64.7099 2061.99 -42.7494 2060.97 -20.7654C2056.74 69.1224 2051.15 159.127 2040.63 248.667C2031.32 328.47 2025.35 441.969 1975.79 512.414C1976.4 511.548 1976.94 510.639 1977.42 509.695C1947.2 569.006 1906.69 617.303 1823.23 642.881C1636.8 700.059 1491.42 562.815 1349.59 483.992C1354.49 486.663 1359.32 489.451 1364.18 492.192C1285.18 447.589 1183.48 450.721 1093.38 459.708C1097.43 459.312 1101.52 458.986 1105.58 458.613C1024.48 465.902 942.91 484.206 861.135 471.044C755.333 454.169 709.806 342.167 674.566 267.787C603.669 118.073 541.505 -130.801 673.224 -270.838C758.364 -361.322 899.379 -377.266 1026.36 -384.981C1199.45 -395.849 1372.98 -397.634 1546.25 -390.328C1667.56 -384.959 1810.59 -388.657 1918.62 -334.879C2031.71 -278.686 2058.98 -186.085 2061.88 -86.3449ZM1244.74 450.942L1226.15 449.296L1248.53 451.476L1244.74 450.942Z" fill="#51a3cd"/>
</svg>
