<svg width="951" height="444" viewBox="0 0 951 444" fill="none" xmlns="http://www.w3.org/2000/svg">
<path opacity="0.17" d="M-185.396 591.723C-104.381 693.643 -45.8616 811.287 -3.06122 933.849C57.2739 1116.06 254.113 1112.4 406.507 1057.28C553.872 1020.28 699.622 976.186 841.556 921.741C901.17 898.868 941.362 848.97 948.952 785.455C964.634 654.217 847.586 535.004 782.734 432.621C734.221 356.008 684.906 280.452 629.924 208.266C569.029 128.382 510.385 28.6493 405.073 5.80221C267.508 -24.0448 201.352 86.3514 98.7189 149.534C14.2448 201.542 -82.7088 236.302 -153.543 308.225C-232.894 388.799 -254.262 496.863 -185.396 591.723Z" fill="#c0dbef"/>
</svg>
