<svg width="1714" height="823" viewBox="0 0 1714 823" fill="none" xmlns="http://www.w3.org/2000/svg">
<path opacity="0.3" d="M711.77 0.316752C645.694 2.25194 583.027 15.2513 527.018 44.0017C389.856 114.428 307.4 257.184 275.014 403.924C234.227 588.601 224.258 931.009 420.733 1028.86C480.821 1058.79 553.293 1049.71 609.849 1016.07C720.686 950.149 757.77 812.602 877.123 750.047C1011.4 679.678 1176.63 683.826 1313.28 745.148C1414.75 790.662 1525.2 826.892 1623.09 752.53C1705.61 689.819 1734.38 576.467 1699.38 480.156C1635.5 304.306 1460.83 201.872 1296.17 135.748C1119.4 64.7663 903.399 -5.30105 711.77 0.316752ZM704.648 895.481C707.038 892.215 709.673 889.047 712.072 885.862L704.648 895.481Z" fill="#101C2D"/>
<path opacity="0.15" d="M1169.78 901.508C1094.61 877.461 1017.17 813.718 944.657 780.816C835.842 731.449 709.507 729.75 593.574 750.488C598.852 749.944 604.119 749.307 609.375 748.577C529.668 759.53 451.837 780.596 377.992 812.713C316.842 839.316 261.937 881.905 194.909 892.629C81.9443 910.705 -21.7987 846.006 3.97396 721.573C32.9835 581.531 168.671 473.41 274.151 387.972C539.746 172.882 938.053 -41 1229.66 259.561C1353.02 386.714 1467.3 646.427 1363.49 815.964C1304.41 912.445 1238.04 923.35 1169.78 901.508ZM966.557 791.157C961.167 788.895 955.794 786.575 950.405 784.329L966.557 791.157Z" fill="#5189CD"/>
</svg>
