<svg width="838" height="1335" viewBox="0 0 838 1335" fill="none" xmlns="http://www.w3.org/2000/svg">
<path opacity="0.1" d="M720.347 506.562C843.067 858.811 371.311 1147.91 71.5851 1145.56C-142.9 1143.84 -405.994 1036.43 -418.51 791.918C-441.677 342.522 566.558 65.136 720.347 506.562Z" fill="#4F78AB"/>
<path opacity="0.15" d="M177.911 79.5248C194.273 86.5509 210.485 94.5397 226.537 102.918C292.161 137.196 357.398 172.538 420.586 211.397C476.925 245.981 559.566 289.739 595.008 351.13C594.57 350.377 594.08 349.656 593.541 348.973C627.357 392.073 649.396 439.043 639.633 510.204C617.853 669.186 465.167 730.198 357.307 808.792C360.995 806.057 364.747 803.414 368.472 800.738C307.871 844.274 275.052 921.279 250.61 991.655C251.713 988.499 252.884 985.333 254.012 982.168C231.412 1045.24 216.872 1112.48 178.779 1168.97C129.607 1242.11 30.2798 1237.32 -37.4139 1237.87C-173.657 1238.96 -380.885 1199.19 -439.859 1052.37C-477.954 957.474 -441.102 846.676 -402.962 749.207C-351.233 616.221 -292.571 486.047 -227.217 359.219C-181.273 270.516 -134.583 162.451 -57.1019 100.424C23.9336 35.451 102.469 47.1605 177.911 79.5248ZM296.394 875.623L288.739 888.932L298.102 872.98L296.394 875.623Z" fill="#5189CD"/>
</svg>
