<svg width="1128" height="816" viewBox="0 0 1128 816" fill="none" xmlns="http://www.w3.org/2000/svg">
<g clip-path="url(#clip0_1011_9725)">
<path opacity="0.15" d="M881.758 128.965C898.351 246.706 953.817 361.869 1019.28 467.989C1040.64 502.617 1064.18 537.662 1096.82 560.676C1120.36 577.284 1146.95 586.399 1173.06 595.262C1212.77 608.774 1254.64 622.45 1292.23 614.499C1316.14 609.441 1336.35 595.945 1355.68 582.122C1377.81 566.297 1400.3 548.592 1409.75 521.715C1426.38 474.436 1398.56 416.38 1375.21 364.783C1328.7 262.078 1296.61 154.49 1280.53 47.0652C1273.96 3.2136 1269.93 -40.9919 1255.91 -84.2403C1241.9 -127.489 1216.11 -170.758 1177.94 -195.367C1143.91 -217.303 1104 -221.768 1068.67 -215.821C917.31 -190.366 859.607 -28.1357 881.758 128.965Z" fill="#5189CD"/>
<path opacity="0.3" d="M812.277 1085.3C943.156 1040.32 1060.47 964.209 1176.4 888.977C1233.28 852.003 1291.44 813.846 1331.69 759.228C1356.63 725.427 1373.73 686.503 1381.77 645.274C1389.8 604.046 1388.57 561.547 1378.16 520.854C1367.74 480.162 1348.4 442.295 1321.55 409.998C1294.69 377.7 1260.99 351.78 1222.88 334.115C1170.58 309.852 1112.14 302.125 1054.53 299.684C914.614 293.744 759.85 325.457 674.476 436.404C614.75 513.952 598.818 617.625 543.597 698.369C503.906 756.485 444.885 801.387 415.235 865.217C401.527 895.424 394.987 928.391 396.127 961.543C397.267 994.695 406.054 1027.14 421.805 1056.33C448.358 1104.6 517.724 1168.38 578.205 1164.86C611.654 1162.9 653.284 1134.83 686.18 1124.09C727.961 1110.39 770.647 1099.6 812.277 1085.3Z" fill="#101C2D"/>
</g>
<defs>
<clipPath id="clip0_1011_9725">
<rect width="1128" height="816" fill="white" transform="matrix(1 0 0 -1 0 816)"/>
</clipPath>
</defs>
</svg>
