<svg width="1920" height="584" viewBox="0 0 1920 584" fill="none" xmlns="http://www.w3.org/2000/svg">
<path opacity="0.1" d="M-59.9014 -10.7733C-59.7212 -1.19086 -59.3035 8.44891 -58.6482 18.1462C-52.5303 108.473 -31.1542 197.57 -3.97961 284.451C37.4949 417.086 115.653 526.636 216.194 629.392C435.507 853.61 836.05 749.82 1042.91 567.714C1258.49 377.978 1348.39 78.4216 1248.02 -180.45C1173.01 -373.952 995.437 -512.199 775.313 -558.101C434.573 -629.181 57.2001 -486.553 -39.2133 -165.954C-48.6241 -134.6 -54.8555 -102.375 -57.813 -69.7689C-59.5798 -50.1563 -60.277 -30.4619 -59.9014 -10.7733Z" fill="#5197cd"/>
<path opacity="0.1" d="M1200.93 -103.547C1194.76 -100.243 1188.63 -96.7661 1182.54 -93.1151C1125.87 -59.0976 1075.08 -15.5516 1027.66 31.0345C955.26 102.147 910.09 189.476 876.793 289.124C804.113 506.514 1005.02 732.881 1192.31 807.059C1387.46 884.382 1612.12 843.336 1746.95 691.893C1847.74 578.699 1878.45 417.082 1834.95 258.452C1767.63 12.8931 1549.2 -185.47 1308.69 -141.668C1285.17 -137.373 1262.15 -130.717 1239.97 -121.802C1226.63 -116.432 1213.6 -110.338 1200.93 -103.547Z" fill="#707781"/>
</svg>
