<svg width="1920" height="1080" viewBox="0 0 1920 1080" fill="none" xmlns="http://www.w3.org/2000/svg">
<g clip-path="url(#clip0_1545_10956)">
<path d="M1736.17 1229.18C1707.27 1624.98 1124.44 1707.16 832.703 1577.82C623.953 1485.23 412.363 1268.88 503.401 1024.93C670.559 576.518 1772.39 733.175 1736.17 1229.18Z" fill="#F5F9FF"/>
<path opacity="0.1" d="M2708.89 -86.3449C2709.51 -64.7099 2708.99 -42.7493 2707.97 -20.7654C2703.74 69.1224 2698.15 159.127 2687.63 248.667C2678.32 328.47 2672.35 441.969 2622.79 512.414C2623.4 511.548 2623.94 510.639 2624.42 509.695C2594.2 569.006 2553.69 617.303 2470.23 642.881C2283.8 700.059 2138.42 562.815 1996.59 483.992C2001.49 486.663 2006.32 489.451 2011.18 492.192C1932.18 447.589 1830.48 450.721 1740.38 459.708C1744.43 459.312 1748.52 458.986 1752.59 458.613C1671.48 465.902 1589.91 484.206 1508.14 471.044C1402.33 454.169 1356.81 342.167 1321.57 267.787C1250.67 118.073 1188.51 -130.801 1320.22 -270.838C1405.36 -361.322 1546.38 -377.266 1673.36 -384.981C1846.45 -395.849 2019.98 -397.634 2193.25 -390.328C2314.56 -384.959 2457.59 -388.657 2565.62 -334.879C2678.71 -278.686 2705.98 -186.085 2708.89 -86.3449ZM1891.74 450.942L1873.15 449.296L1895.53 451.476L1891.74 450.942Z" fill="#5189CD"/>
</g>
<defs>
<clipPath id="clip0_1545_10956">
<rect width="1920" height="1080" fill="white" transform="translate(1920 1080) rotate(-180)"/>
</clipPath>
</defs>
</svg>
