<svg width="1919" height="579" viewBox="0 0 1919 579" fill="none" xmlns="http://www.w3.org/2000/svg">
<path opacity="0.1" d="M552.91 -646.536C849.316 -793.808 1200.9 -847.611 1547.55 -864.273C1660.27 -869.648 1778.36 -870.723 1882.28 -832.024C1957.43 -804.074 2020.18 -757.259 2081.59 -711.25C2175.09 -641.376 2272.3 -566.45 2313.15 -467.552C2339.13 -404.611 2339.99 -336.888 2338.6 -270.723C2337.09 -194.936 2331.89 -115.495 2284.92 -51.319C2202.52 61.5541 2025.55 88.8586 1870.37 116.378C1565.99 169.746 1270.42 264.882 991.991 399.098C880.986 452.847 773.148 513.422 651.837 549.273C530.526 585.124 390.589 594.046 274.109 545.027C170.244 501.329 96.9739 416.62 55.3202 326.053C-124.231 -62.0688 157.415 -450.029 552.91 -646.536Z" fill="#F5F9FF"/>
</svg>
