<svg width="1920" height="256" viewBox="0 0 1920 256" fill="none" xmlns="http://www.w3.org/2000/svg">
<path opacity="0.7" d="M-59.9013 -178.773C-59.7212 -169.191 -59.3034 -159.551 -58.6482 -149.854C-52.5303 -59.5268 -31.1542 29.5697 -3.9796 116.451C37.4949 249.086 115.653 358.636 216.194 461.392C435.507 685.61 836.05 581.82 1042.91 399.714C1258.49 209.978 1348.39 -89.5784 1248.02 -348.45C1173.01 -541.952 995.437 -680.199 775.313 -726.101C434.573 -797.181 57.2001 -654.553 -39.2133 -333.954C-48.6241 -302.6 -54.8555 -270.375 -57.8129 -237.769C-59.5798 -218.156 -60.2769 -198.462 -59.9013 -178.773V-178.773Z" fill="white"/>
<path opacity="0.2" d="M1200.93 -271.547C1194.76 -268.243 1188.63 -264.766 1182.54 -261.115C1125.87 -227.098 1075.08 -183.552 1027.66 -136.965C955.26 -65.853 910.09 21.4756 876.793 121.124C804.113 338.514 1005.02 564.881 1192.31 639.059C1387.46 716.382 1612.12 675.336 1746.95 523.893C1847.74 410.699 1878.45 249.082 1834.95 90.452C1767.63 -155.107 1549.2 -353.47 1308.69 -309.668C1285.17 -305.373 1262.15 -298.717 1239.97 -289.802C1226.63 -284.432 1213.6 -278.338 1200.93 -271.547V-271.547Z" fill="#D3DFF0"/>
</svg>
