<svg width="1541" height="1096" viewBox="0 0 1541 1096" fill="none" xmlns="http://www.w3.org/2000/svg">
<path opacity="0.8" d="M1048.17 394.534C1094.56 313.269 1125.09 227.971 1131.68 139.107C1147.81 -78.5238 1036.26 -283.36 882.979 -430.634C690.088 -616.017 284.027 -880.404 20.9764 -715.123C-59.4721 -664.574 -101.959 -570.316 -103.053 -477.187C-105.208 -294.686 33.5108 -148.511 21.0126 41.8023C6.94516 255.902 -119.924 452.491 -294.749 572.416C-424.539 661.481 -549.737 768.229 -532.151 941.311C-517.298 1087.24 -401.654 1205.53 -259.561 1234.22C-0.130574 1286.63 252.369 1151.07 453.644 1000.84C669.714 839.572 913.619 630.216 1048.17 394.534ZM-27.376 -273.776C-25.1953 -268.481 -23.3134 -262.962 -21.2373 -257.717L-27.376 -273.776Z" fill="white"/>
<path opacity="0.1" d="M-421.111 125.127C-321.831 73.9668 -180.555 60.2494 -75.0669 20.6003C83.2221 -38.8979 211.35 -163.626 306.616 -300.393C301.879 -294.566 297.246 -288.658 292.716 -282.668C361.521 -373.392 418.332 -472.358 460.096 -578.391C494.672 -666.204 507.005 -763.76 563.351 -841.568C658.312 -972.701 826.866 -1011.78 925.576 -861.491C1036.67 -692.34 1009.06 -448.372 988.99 -257.33C938.411 223.668 753.816 836.265 161.271 827.352C-89.4022 823.579 -463.628 678.09 -529.367 404.567C-566.78 248.91 -511.274 171.583 -421.111 125.127ZM-107.329 32.1694C-99.6722 29.04 -91.9743 25.9842 -84.3335 22.8384L-107.329 32.1694Z" fill="#5189CD"/>
</svg>
