<svg width="1920" height="400" viewBox="0 0 1920 400" fill="none" xmlns="http://www.w3.org/2000/svg">
<path opacity="0.1" d="M-251.901 605.227C-251.721 614.809 -251.303 624.449 -250.648 634.146C-244.53 724.473 -223.154 813.57 -195.98 900.451C-154.505 1033.09 -76.3474 1142.64 24.1937 1245.39C243.507 1469.61 644.05 1365.82 850.906 1183.71C1066.49 993.978 1156.39 694.422 1056.02 435.55C981.006 242.048 803.437 103.801 583.313 57.899C242.573 -13.1812 -134.8 129.447 -231.213 450.046C-240.624 481.4 -246.855 513.625 -249.813 546.231C-251.58 565.844 -252.277 585.538 -251.901 605.227Z" fill="#5189CD"/>
<path opacity="0.2" d="M976.428 -1070.65C966.607 -1065.39 956.853 -1059.86 947.165 -1054.04C856.933 -999.886 776.068 -930.557 700.571 -856.389C585.309 -743.172 513.395 -604.138 460.383 -445.49C344.672 -99.3875 664.531 261.006 962.705 379.104C1273.4 502.207 1631.09 436.859 1845.75 195.75C2006.21 15.5368 2055.09 -241.771 1985.84 -494.322C1878.67 -885.271 1530.91 -1201.08 1147.99 -1131.35C1110.55 -1124.51 1073.9 -1113.91 1038.59 -1099.72C1017.35 -1091.17 996.604 -1081.46 976.428 -1070.65Z" fill="#101C2D"/>
</svg>
