<svg width="1920" height="528" viewBox="0 0 1920 528" fill="none" xmlns="http://www.w3.org/2000/svg">
<mask id="mask0_1490_10953" style="mask-type:alpha" maskUnits="userSpaceOnUse" x="0" y="0" width="1920" height="528">
<rect width="1920" height="528" fill="#E9EFF7"/>
</mask>
<g mask="url(#mask0_1490_10953)">
<path opacity="0.3" d="M814.77 -294.687C748.694 -292.752 686.027 -279.753 630.018 -251.002C492.856 -180.576 410.4 -37.82 378.014 108.92C337.227 293.597 327.258 636.005 523.733 733.859C583.821 763.785 656.293 754.705 712.849 721.064C823.686 655.145 860.77 517.598 980.123 455.043C1114.4 384.674 1279.63 388.822 1416.28 450.144C1517.75 495.658 1628.2 531.888 1726.09 457.526C1808.61 394.815 1837.38 281.463 1802.38 185.153C1738.5 9.30257 1563.83 -93.1324 1399.17 -159.256C1222.4 -230.238 1006.4 -300.305 814.77 -294.687ZM807.648 600.477C810.038 597.211 812.673 594.043 815.072 590.858L807.648 600.477Z" fill="#101C2D"/>
<path opacity="0.15" d="M1272.78 606.504C1197.61 582.457 1120.17 518.714 1047.66 485.813C938.842 436.445 812.507 434.746 696.574 455.484C701.852 454.94 707.119 454.303 712.375 453.573C632.668 464.527 554.837 485.592 480.992 517.709C419.842 544.312 364.937 586.901 297.909 597.626C184.944 615.702 81.2013 551.002 106.974 426.569C135.984 286.527 271.671 178.406 377.151 92.9681C642.746 -122.122 1041.05 -336.004 1332.66 -35.4425C1456.02 91.7102 1570.3 351.423 1466.49 520.96C1407.41 617.441 1341.04 628.346 1272.78 606.504ZM1069.56 496.153C1064.17 493.891 1058.79 491.571 1053.4 489.325L1069.56 496.153Z" fill="#5189CD"/>
</g>
</svg>
