<svg width="1920" height="955" viewBox="0 0 1920 955" fill="none" xmlns="http://www.w3.org/2000/svg">
<path opacity="0.1" d="M415.696 -365.46C735.04 -524.139 1113.83 -582.109 1487.31 -600.062C1608.75 -605.853 1735.98 -607.012 1847.94 -565.315C1928.91 -535.201 1996.51 -484.759 2062.67 -435.186C2163.41 -359.9 2268.14 -279.171 2312.15 -172.612C2340.14 -104.797 2341.07 -31.8279 2339.56 39.462C2337.95 121.118 2332.34 206.712 2281.73 275.86C2192.96 397.475 2002.29 426.895 1835.1 456.546C1507.17 514.047 1188.72 616.552 888.755 761.164C769.16 819.076 652.977 884.343 522.279 922.97C391.58 961.598 240.815 971.211 115.321 918.395C3.41763 871.313 -75.5219 780.043 -120.399 682.461C-313.844 264.277 -10.404 -153.733 415.696 -365.46Z" fill="#F5F9FF"/>
</svg>
