<svg width="1920" height="1080" viewBox="0 0 1920 1080" fill="none" xmlns="http://www.w3.org/2000/svg">
<path opacity="0.3" d="M728.405 -263.495C622.945 -260.406 522.927 -239.659 433.534 -193.774C214.62 -81.3739 83.0164 146.463 31.328 380.658C-33.7707 675.401 -49.6808 1221.88 263.9 1378.05C359.803 1425.82 475.47 1411.32 565.736 1357.63C742.636 1252.43 801.823 1032.9 992.315 933.067C1206.62 820.758 1470.33 827.378 1688.44 925.248C1850.39 997.887 2026.67 1055.71 2182.91 937.028C2314.61 836.944 2360.52 656.035 2304.67 502.324C2202.71 221.67 1923.93 58.1845 1661.13 -47.3476C1379 -160.634 1034.25 -272.46 728.405 -263.495ZM717.039 1165.18C720.854 1159.96 725.059 1154.91 728.887 1149.83L717.039 1165.18Z" fill="#101C2D"/>
<path opacity="0.15" d="M1459.15 1174.85C1339.17 1136.46 1215.56 1034.71 1099.82 982.195C926.133 903.391 724.482 900.679 539.436 933.783C547.86 932.914 556.267 931.897 564.657 930.732C437.432 948.217 313.201 981.843 195.333 1033.11C97.7284 1075.57 10.0923 1143.56 -96.8957 1160.68C-277.204 1189.53 -442.794 1086.25 -401.657 887.628C-355.353 664.086 -138.775 491.497 29.5873 355.117C453.518 11.7784 1089.28 -329.63 1554.72 150.141C1751.62 353.109 1934.04 767.675 1768.33 1038.3C1674.03 1192.31 1568.1 1209.71 1459.15 1174.85ZM1134.77 998.701C1126.17 995.09 1117.59 991.387 1108.99 987.801L1134.77 998.701Z" fill="#5189CD"/>
</svg>
