<svg width="922" height="1091" viewBox="0 0 922 1091" fill="none" xmlns="http://www.w3.org/2000/svg">
<path opacity="0.1" d="M41.604 591.852C122.619 693.772 181.138 811.416 223.939 933.978C284.274 1116.19 481.113 1112.53 633.507 1057.41C780.872 1020.41 926.622 976.315 1068.56 921.87C1128.17 898.997 1168.36 849.099 1175.95 785.584C1191.63 654.346 1074.59 535.133 1009.73 432.75C961.221 356.137 911.906 280.581 856.924 208.395C796.029 128.511 737.385 28.7783 632.073 5.93112C494.508 -23.9159 428.352 86.4803 325.719 149.663C241.245 201.671 144.291 236.431 73.4571 308.354C-5.89377 388.928 -27.2623 496.992 41.604 591.852Z" fill="#5189CD"/>
</svg>
