<svg width="1920" height="656" viewBox="0 0 1920 656" fill="none" xmlns="http://www.w3.org/2000/svg">
<path opacity="0.1" d="M1588.9 -245.422C1327.02 -356.968 1022.38 -385.607 723.943 -382.573C626.55 -381.567 525.618 -376.622 438.111 -338.148C374.977 -310.412 323.426 -267.135 273.002 -224.562C196.229 -159.828 116.45 -90.8631 86.3072 -3.95133C67.13 51.3418 69.8266 109.469 74.2886 166.191C79.3818 231.145 87.8875 299.161 131.317 351.762C207.691 444.328 361.084 459.059 495.717 474.965C763.748 506.56 1023.96 573.779 1264.06 673.617C1362.08 714.365 1457.69 760.75 1563.67 785.482C1669.65 810.215 1790.22 810.823 1887.84 762.976C1974.86 720.299 2033.33 643.982 2064.79 564.181C2199.63 222.301 1938.34 -96.6109 1588.9 -245.422Z" fill="#5189CD"/>
<path opacity="0.5" d="M964.19 -273.785C743.943 -286.078 525.002 -244.251 308.633 -202.893C202.432 -182.511 93.6254 -161.154 1.3749 -104.722C-55.7594 -69.8154 -104.415 -22.6379 -141.068 33.3934C-177.721 89.4247 -201.454 152.907 -210.547 219.241C-219.64 285.576 -213.865 353.102 -193.642 416.928C-173.418 480.754 -139.252 539.282 -93.6183 588.273C-31.0005 655.538 50.6261 702.084 134.205 740.328C337.174 833.221 584.706 879.457 777.444 767.002C912.239 688.433 998.094 544.965 1128.16 458.968C1221.7 397.038 1335.82 366.238 1417.97 289.836C1456.37 253.485 1485.85 208.75 1504.1 159.124C1522.35 109.497 1528.88 56.3239 1523.19 3.75624C1513.01 -83.4754 1448.97 -219.337 1357.56 -250.5C1307.01 -267.713 1228.68 -251.314 1173.66 -255.227C1103.75 -260.134 1034.24 -269.86 964.19 -273.785Z" fill="white"/>
</svg>
