<svg width="1920" height="592" viewBox="0 0 1920 592" fill="none" xmlns="http://www.w3.org/2000/svg">
<path opacity="0.1" d="M-59.9014 -6.77325C-59.7212 2.80914 -59.3035 12.4489 -58.6482 22.1462C-52.5303 112.473 -31.1542 201.57 -3.97961 288.451C37.4949 421.086 115.653 530.636 216.194 633.392C435.507 857.61 836.05 753.82 1042.91 571.714C1258.49 381.978 1348.39 82.4216 1248.02 -176.45C1173.01 -369.952 995.437 -508.199 775.313 -554.101C434.573 -625.181 57.2001 -482.553 -39.2133 -161.954C-48.6241 -130.6 -54.8555 -98.3751 -57.813 -65.7689C-59.5798 -46.1563 -60.277 -26.4619 -59.9014 -6.77325Z" fill="#5189CD"/>
<path opacity="0.2" d="M1200.93 -99.5467C1194.76 -96.2433 1188.63 -92.7661 1182.54 -89.1151C1125.87 -55.0976 1075.08 -11.5516 1027.66 35.0345C955.26 106.147 910.09 193.476 876.793 293.124C804.113 510.514 1005.02 736.881 1192.31 811.059C1387.46 888.382 1612.12 847.336 1746.95 695.893C1847.74 582.699 1878.45 421.082 1834.95 262.452C1767.63 16.8931 1549.2 -181.47 1308.69 -137.668C1285.17 -133.373 1262.15 -126.717 1239.97 -117.802C1226.63 -112.432 1213.6 -106.338 1200.93 -99.5467Z" fill="#101C2D"/>
</svg>
