<svg width="543" height="300" viewBox="0 0 543 300" fill="none" xmlns="http://www.w3.org/2000/svg">
<path opacity="0.1" d="M-593.396 591.809C-512.381 693.729 -453.862 811.373 -411.061 933.935C-350.726 1116.14 -153.887 1112.49 -1.49339 1057.37C145.872 1020.37 291.622 976.272 433.556 921.827C493.17 898.954 533.362 849.056 540.952 785.541C556.634 654.303 439.586 535.09 374.734 432.707C326.221 356.094 276.906 280.538 221.924 208.352C161.029 128.468 102.385 28.7353 -2.92743 5.88815C-140.492 -23.9588 -206.648 86.4373 -309.281 149.62C-393.755 201.628 -490.709 236.388 -561.543 308.311C-640.894 388.885 -662.262 496.949 -593.396 591.809Z" fill="#5189CD"/>
</svg>
