<svg width="611" height="617" viewBox="0 0 611 617" fill="none" xmlns="http://www.w3.org/2000/svg">
<path opacity="0.1" d="M41.604 25.1444C122.619 -76.776 181.138 -194.42 223.939 -316.982C284.274 -499.189 481.113 -495.537 633.507 -440.413C780.872 -403.413 926.622 -359.319 1068.56 -304.874C1128.17 -282.001 1168.36 -232.103 1175.95 -168.588C1191.63 -37.3495 1074.59 81.8629 1009.73 184.246C961.221 260.859 911.906 336.415 856.924 408.601C796.029 488.485 737.385 588.218 632.073 611.065C494.508 640.912 428.352 530.516 325.719 467.333C241.245 415.325 144.291 380.565 73.4571 308.642C-5.89377 228.068 -27.2623 120.004 41.604 25.1444Z" fill="#A6C1E0"/>
</svg>
